/* XPM */
static char *aisleriot[] = {
/* columns rows colors chars-per-pixel */
"32 32 179 2",
"   c #000000",
".  c #0D0D0D",
"X  c #151515",
"o  c #181817",
"O  c #1C1C1C",
"+  c #262625",
"@  c #302F2E",
"#  c #263543",
"$  c #283745",
"%  c #2A3846",
"&  c #2F3F4E",
"*  c #373E47",
"=  c #323F4E",
"-  c #2F404F",
";  c #2F4457",
":  c #39414A",
">  c #344353",
",  c #334A5E",
"<  c #384757",
"1  c #3B4B5C",
"2  c #364D62",
"3  c #394E62",
"4  c #3E5266",
"5  c #3E576C",
"6  c #464644",
"7  c #4D4D4C",
"8  c #494E53",
"9  c #4E5152",
"0  c #4D565E",
"q  c #50504F",
"w  c #525251",
"e  c #585654",
"r  c #595959",
"t  c #44566A",
"y  c #41596F",
"u  c #445B71",
"i  c #495D73",
"p  c #456079",
"a  c #4D6276",
"s  c #4C667E",
"d  c #5F6163",
"f  c #59636D",
"g  c #52677C",
"h  c #53697C",
"j  c #616364",
"k  c #686765",
"l  c #6A6967",
"z  c #6B6A69",
"x  c #72716F",
"c  c #777572",
"v  c #7F7F7D",
"b  c #4D6780",
"n  c #546C82",
"m  c #5B6E82",
"M  c #5C7186",
"N  c #5C738A",
"B  c #62778C",
"V  c #677B8F",
"C  c #657B92",
"Z  c #647D98",
"A  c #6B7F95",
"S  c #6C8197",
"D  c #6E839A",
"F  c #71879E",
"G  c #7C8B97",
"H  c #748AA2",
"J  c #B73F22",
"K  c #B34428",
"L  c #BD482C",
"P  c #B84F3B",
"I  c #BE533A",
"U  c #B05D4D",
"Y  c #AE6B5A",
"T  c #B36A5B",
"R  c #A87164",
"E  c #A57F75",
"W  c #BD7A67",
"Q  c #C71A08",
"!  c #CA1D0A",
"~  c #CD240D",
"^  c #CB2A0F",
"/  c #C42D14",
"(  c #CE2F12",
")  c #C33C1C",
"_  c #C8371A",
"`  c #C93F1D",
"'  c #D32D12",
"]  c #D63113",
"[  c #D83817",
"{  c #DC3C1A",
"}  c #C54022",
"|  c #C1492E",
" . c #D85B31",
".. c #DF6F3C",
"X. c #E2431D",
"o. c #E44C22",
"O. c #E55125",
"+. c #E2582B",
"@. c #ED5727",
"#. c #E9592A",
"$. c #EE612E",
"%. c #F26C35",
"&. c #F4763B",
"*. c #F47C3F",
"=. c #C57E64",
"-. c #CD7C60",
";. c #E97B42",
":. c #A88178",
">. c #BD8677",
",. c #BC887A",
"<. c #C88167",
"1. c #C8866E",
"2. c #C48F7D",
"3. c #ED8247",
"4. c #F58042",
"5. c #F58E4B",
"6. c #F98442",
"7. c #F88D4A",
"8. c #FB9B53",
"9. c #FEA458",
"0. c #868683",
"q. c #8A8987",
"w. c #8B8B8A",
"e. c #85929D",
"r. c #94928F",
"t. c #959593",
"y. c #999896",
"u. c #9B9B9A",
"i. c #8195AB",
"p. c #909FAF",
"a. c #9CA3A7",
"s. c #95A4B4",
"d. c #97A7B8",
"f. c #99A5B2",
"g. c #99A9B9",
"h. c #A19F9C",
"j. c #B3948C",
"k. c #A1A09F",
"l. c #B9A49E",
"z. c #A3A3A2",
"x. c #ADABA7",
"c. c #ADADA9",
"v. c #A1B0BF",
"b. c #B0AFAD",
"n. c #BDABA5",
"m. c #BCBBB8",
"M. c #B5BEC7",
"N. c #B9C1C5",
"B. c #C39587",
"V. c #CA9989",
"C. c #C49D91",
"Z. c #C2AAA3",
"A. c #C6B4AE",
"S. c #C5BCB8",
"D. c #CDBEB8",
"F. c #CBC3BF",
"G. c #D3C3BC",
"H. c #C6C5C2",
"J. c #CBC9C7",
"K. c #CDCBC8",
"L. c #D4CBC6",
"P. c #D0CFCA",
"I. c #D3D1CD",
"U. c #D5D3D0",
"Y. c #DAD7D3",
"T. c #D9D8D5",
"R. c #DEDEDB",
"E. c #E0DFDB",
"W. c #E2E2DE",
"Q. c #E5E5E3",
"!. c #E5E7E8",
"~. c #E7E8E5",
"^. c #E6E9E9",
"/. c #E8E7E2",
"(. c #EAE9E6",
"). c #ECEDEB",
"_. c #F1F1EE",
"`. c #F4F4F1",
"'. c None",
/* pixels */
"'.'.'.'.'.'.'.'.'.'.'.'.'.'.'.'.'.'.'.'.'.'.'.'.'.'.'.'.'.'.'.'.",
"'.'.                                  '.'.'.'.'.'.'.'.'.'.'.'.'.",
"'.  o w r r r r r r r r r r r r r 6 .     '.'.'.'.'.'.'.'.'.'.'.",
"'.  w `.).).^.).).^.^.).).^.^.)._.U.X       '.'.'.'.'.'.'.'.'.'.",
"'.  r ).H H H H F F D D S S S C s.T.o     '.'.'.'.'.'.'.'.'.'.'.",
"'.  r ^.C b 1 : : > : : : : : : 8 j O o o X       '.'.'.'.'.'.'.",
"'.  r ^.N y 9 T.T.R.R.R.R.R.R.R.R.R.E.W.Q.m..       '.'.'.'.'.'.",
"'.  r ^.F n f _.M.g.g.d.d.d.d.s.s.s.s.p.M.R.o     '.'.'.'.'.'.'.",
"'.  r ^.n 2 d ^.S N n 5 8 4 1 1 1 1 < < f w..           '.'.'.'.",
"'.  r ^.C i j ^.n p ; d k.y.u.z.k.k.k.k.z.z.z.z.z.z.7       '.'.",
"'.  r ^.C u j ^.F C 1 z.L.c x.W.W.W.(.(.(.).).).`.`.y.      '.'.",
"'.  r ^.g , d ^.N s ; z.r.l l I.W.W.W.W.W.W./.(.^._.y.      '.'.",
"'.  r ^.A a j ^.M s ; t.k k e b.W.W.W.W./.(.(.(.^.`.y.      '.'.",
"'.  r ^.n 3 j ^.S C 1 w.h.Y.c.k.L.E.W.W.Y.Y.Q.).).`.u.      '.'.",
"'.  r ^.n 1 j ^.s u $ u.W.E.G.2.<.1.V.V.<.<.V.Y.)._.u.      '.'.",
"'.  r ^.V i j ^.B n > z.(.L.-.3.8.5...;.7.;. .2.T._.y.      '.'.",
"'.  r !.a ; d ^.B n : z./.B.;.9.8.7.*.*.&.$.o.| Z._.u.      '.'.",
"'.  r ^.M 4 d ^.a 5 $ z.E.W *.6.%.#.#.X.{ ] ] } j.).u.      '.'.",
"'.  r ^.m 4 d ^.V N < k.Q.,.+.@.X.[ [ ' ~ Q ( L l._.u.      '.'.",
"'.  r `.N.a.z ^.g u % z.).F.I { ' ' ~ ~ Q ^ ` Y K._.y.      '.'.",
"'.  @ t.k.q.k Q.h u $ z.`.(.Z.I ( ~ ! Q ^ ) Y S.Q.`.y.      '.'.",
"'.          r ^.M g : z.`.(.W.A.U / ~ ^ J R F.Q.).`.u.      '.'.",
"'.'.        r ).e.G t k.`.(.).(.F.T _ K E J.I.Q._.R.w.      '.'.",
"'.'.        6 I.Y.E.w.z.`._.).).(.L.T :.I.).x.t.K.0.v       '.'.",
"'.'.'.'.'.    o o o . z.`.).).).).(.U.Y.(._.H.w r c t.      '.'.",
"'.'.'.'.'.'.          z.`.).).).).).).).).).(.0.x b.u.      '.'.",
"'.'.'.'.'.'.          t.`._.).).)._.)._.)._._.J.y.W.w.      '.'.",
"'.'.'.'.'.'.'.    '.  + q w q w q q w w w q w w w w +       '.'.",
"'.'.'.'.'.'.'.'.'.'.                                        '.'.",
"'.'.'.'.'.'.'.'.'.'.'.                                      '.'.",
"'.'.'.'.'.'.'.'.'.'.'.                                      '.'.",
"'.'.'.'.'.'.'.'.'.'.'.'.'.'.'.'.'.'.'.'.'.'.'.'.'.'.'.'.'.'.'.'."
};
