/* XPM */
static char *blackjack[] = {
/* columns rows colors chars-per-pixel */
"32 32 239 2",
"   c black",
".  c #010203",
"X  c #020202",
"o  c #050505",
"O  c #060606",
"+  c #0B0B0B",
"@  c #080B0E",
"#  c #0C0C0C",
"$  c #111111",
"%  c #121212",
"&  c #161616",
"*  c #171717",
"=  c #181818",
"-  c #1C1C1C",
";  c #212121",
":  c #252525",
">  c #262625",
",  c #262626",
"<  c #2C2C2C",
"1  c #2F2F2F",
"2  c #313131",
"3  c #333333",
"4  c #343434",
"5  c #373B3E",
"6  c #383838",
"7  c #3D3D3D",
"8  c #3E3E3D",
"9  c #3F3F3E",
"0  c #723124",
"q  c #40403F",
"w  c #414140",
"e  c #454544",
"r  c #464646",
"t  c #484847",
"y  c #4D4D4C",
"u  c #4E4E4E",
"i  c #50504F",
"p  c #51504E",
"a  c #505050",
"s  c #525251",
"d  c #535352",
"f  c #545454",
"g  c #565656",
"h  c #575757",
"j  c #585857",
"k  c #5A5855",
"l  c #585858",
"z  c #595959",
"x  c #5A5A59",
"c  c #5A5A5A",
"v  c #5D5D5C",
"b  c #5D5F61",
"n  c #7F665F",
"m  c #626261",
"M  c #636362",
"N  c #666665",
"B  c #696764",
"V  c #6F6E6B",
"C  c #6D6D6D",
"Z  c #7C7A77",
"A  c #7E7A78",
"S  c #7E7E7C",
"D  c #7F7F7E",
"F  c #7F7F7F",
"G  c #861C09",
"H  c #8D210D",
"J  c #983518",
"K  c #98552E",
"L  c #A0542A",
"P  c #A36B39",
"I  c #BB7D6D",
"U  c #BF7F6D",
"Y  c #C84026",
"T  c #CA4B2C",
"R  c #E6421C",
"E  c #EA6531",
"W  c #F76730",
"Q  c #E07645",
"!  c #E67B4B",
"~  c #B9877B",
"^  c #CB8F7C",
"/  c #F18042",
"(  c #FF954D",
")  c #FFA459",
"_  c #808080",
"`  c #828280",
"'  c #828484",
"]  c #848380",
"[  c #878786",
"{  c #898987",
"}  c #8C8C8A",
"|  c #8C8C8B",
" . c #8D8C8B",
".. c #8D8D8B",
"X. c #8D8D8D",
"o. c #908F8B",
"O. c #92928F",
"+. c #939391",
"@. c #929292",
"#. c #949390",
"$. c #959592",
"%. c #959593",
"&. c #969693",
"*. c #979795",
"=. c #979896",
"-. c #979998",
";. c #989896",
":. c #989897",
">. c #999997",
",. c #989898",
"<. c #999998",
"1. c #989A9A",
"2. c #9A9A98",
"3. c #9B9A98",
"4. c #9B9B99",
"5. c #9A9A9A",
"6. c #9B9C9A",
"7. c #9C9B9B",
"8. c #9C9C9A",
"9. c #9C9D9E",
"0. c #9E9E9C",
"q. c #BE9086",
"w. c #A3A39F",
"e. c #BAA39A",
"r. c #A1A1A1",
"t. c #A2A2A1",
"y. c #A2A2A2",
"u. c #A2A3A3",
"i. c #A3A3A2",
"p. c #A3A3A3",
"a. c #A3A3A4",
"s. c #A3A4A4",
"d. c #A4A4A3",
"f. c #A6A4A0",
"g. c #A4A4A4",
"h. c #A5A5A4",
"j. c #A6A6A4",
"k. c #A6A6A5",
"l. c #A8A8A6",
"z. c #A9A9A7",
"x. c #ADADAB",
"c. c #ADADAC",
"v. c #AEAEAC",
"b. c #B3B3B1",
"n. c #B4B4B2",
"m. c #B7B7B6",
"M. c #B8B8B6",
"N. c #BBB9B5",
"B. c #B8B8B8",
"V. c #BABAB9",
"C. c #BBBBBA",
"Z. c #BEBEBD",
"A. c #BFBFBD",
"S. c #C8A79B",
"D. c #C5ABA3",
"F. c #C0BFBB",
"G. c #C9C8C5",
"H. c #CACAC7",
"J. c #CBCDCB",
"K. c #CDCDCB",
"L. c #CECECB",
"P. c #D1CDC8",
"I. c #D1D1CF",
"U. c #D2D2D0",
"Y. c #D4D4D1",
"T. c #D5D5D2",
"R. c #D7D5D0",
"E. c #D6D6D4",
"W. c #D7D7D5",
"Q. c #D8D6D1",
"!. c #DAD5D0",
"~. c #D8D8D6",
"^. c #DADAD7",
"/. c #DEDCD7",
"(. c #DBDBD8",
"). c #DBDBDA",
"_. c #DCDBD8",
"`. c #DCDCDA",
"'. c #DDDDDA",
"]. c #DFDDD9",
"[. c #DFDED8",
"{. c #DEDEDC",
"}. c #DFDFDC",
"|. c #E0DFDA",
" X c #E1E0DB",
".X c #E0E0DD",
"XX c #E1E0DC",
"oX c #E2E1DC",
"OX c #E2E2DE",
"+X c #E3E2DE",
"@X c #E4E3DE",
"#X c #E3E3E0",
"$X c #E5E4E0",
"%X c #E5E5E2",
"&X c #E6E5E0",
"*X c #E6E5E1",
"=X c #E6E5E2",
"-X c #E6E6E3",
";X c #E7E7E3",
":X c #E7E7E5",
">X c #E8E7E2",
",X c #E9E8E5",
"<X c #E9E9E4",
"1X c #E8E8E6",
"2X c #E9E9E6",
"3X c #EAE9E4",
"4X c #EAE9E5",
"5X c #EAEAE7",
"6X c #EBEAE6",
"7X c #ECEBE7",
"8X c #EBEBE8",
"9X c #ECECE8",
"0X c #ECECE9",
"qX c #EDECE8",
"wX c #EDEDEA",
"eX c #EDEDEB",
"rX c #EEEDEA",
"tX c #EEEEEB",
"yX c #EFEFEB",
"uX c #EFEFEC",
"iX c #EFEFED",
"pX c #F0F0EC",
"aX c #F0F0ED",
"sX c #F1F0ED",
"dX c #F1F1EE",
"fX c #F2F1EE",
"gX c #F2F2EF",
"hX c #F3F3F0",
"jX c #F4F4F1",
"kX c #F4F4F2",
"lX c #F5F5F2",
"zX c #F5F5F3",
"xX c #F7F7F4",
"cX c #F8F8F4",
"vX c #F8F8F5",
"bX c #F8F8F6",
"nX c #F9F9F6",
"mX c #FCFCF9",
"MX c None",
/* pixels */
"MXMXMXMXMXMXMXMXMXMXMXMXMXMXMXMXMXMXMXMXMXMXMXMXMXMXMXMXMXMXMXMX",
"MXMXMXMXMXMXMXMXMXMXMXMXMXMXMXMXMXMXMXMXMXMXMXMXMXMXMXMXMXMXMXMX",
"MXMXMXMXMXMXMXMXMXMXMXMXMXMXMXMXMXMXMXMXMXMXMXMXMXMXMXMXMXMXMXMX",
"MXMXMXMX.                                   MXMXMXMXMXMXMXMXMXMX",
"MXMXMXMX@ 5 j j j j j k j j j j j j j g ,       MXMXMXMXMXMXMXMX",
"MXMXMXMX  9.oX8.H.7X7XeXeXeXeXfXfXgXgXkX..      MXMXMXMXMXMXMXMX",
"MXMXMXMX  g.f.B Z !./.|.|.oX+X#X#X@X1XfX8.      MXMXMXMXMXMXMXMX",
"MXMXMXMX  5.V k p N.+X@X>X3X1XeXeXfXfXcX9.      MXMXMXMXMXMXMXMX",
"MXMXMXMX   .] F.o.f.J.:.O.#.%.%.&.*.>.8.M               MXMXMXMX",
"MXMXMXMX  :.Q.|.P.e.n b r.r.#.1.p.p.r.r.p.g.g.g.g.r.y       MXMX",
"MXMXMXMX  f.@X!.^ ! K a.mX1Xh l.cXkXkXgXkXkXkXgXkXcX:.      MXMX",
"MXMXMXMXX f.4XS.Q ) P a.vXoX9 >.fXeXeX5XeXeX7XeXeXgX8.      MXMX",
"MXMXMXMX  g.oX~ ! ( L 9.H.Y.w >.gX#X:.L.eXeXeXeXeXgX5.      MXMX",
"MXMXMXMX  g.#XI E W J ' e #.4 2.kXV.- ` eXeXeX5XeXfX5.      MXMX",
"MXMXMXMX  g.eXD.T R H 2.` e v L.{.a   ; V.fXeX7XeXfX5.      MXMX",
"MXMXMXMX  g.fX].~ Y G f.fXY.#X).j O     2 M.yXeXeXfX5.      MXMX",
"MXMXMXMX  f.fXeX'.q.0 u.kXfX~.g           , C.uXeXgX2.      MXMX",
"MXMXMXMX  p.kX7XeX#XA p.kX5XF O             t ~.eXgX2.      MXMX",
"MXMXMXMX  g.kXeXeXfX>.r.kX'.<               # z.fXgX:.      MXMX",
"MXMXMXMX  g.kXeXeXfX>.r.zXY.&                 2.gXgX2.      MXMX",
"MXMXMXMX  g.kXeXeXfX>.r.kX'.3     % = =     % v.gXgX2.      MXMX",
"MXMXMXMX  r.cXkXfXcX8.r.kX8X[ % & ` C  .2 # y n.x.).2.      MXMX",
"MXMXMXMX  y >.8.:.9.M f.kXeX-XC.A.W.e v.U.m.k.6 w d  .      MXMX",
"MXMXMXMX              g.kXeXeXeXuX=Xg.U.fXgX:.8 n.N {       MXMX",
"MXMXMXMXMX            g.kXeXeXeX8XeXfXtXeXgX>.w '.1X>.      MXMX",
"MXMXMXMXMX            g.kXeXeXeXeXeXeXeXeXgX>.8 oXkX8.      MXMX",
"MXMXMXMXMXMXMXMXMXMX  #.fXuXuXuXtXtXyXyXeXgXM.S -XgX..      MXMX",
"MXMXMXMXMXMXMXMXMXMX  , p a a d d p d a d a d d a a ,       MXMX",
"MXMXMXMXMXMXMXMXMXMX                                        MXMX",
"MXMXMXMXMXMXMXMXMXMXMX                                      MXMX",
"MXMXMXMXMXMXMXMXMXMXMX                                      MXMX",
"MXMXMXMXMXMXMXMXMXMXMXMXMXMXMXMXMXMXMXMXMXMXMXMXMXMXMXMXMXMXMXMX"
};
