/* XPM */
static char *freecell[] = {
/* columns rows colors chars-per-pixel */
"32 32 178 2",
"   c #000000",
".  c #0D0D0D",
"X  c #161615",
"o  c #191919",
"O  c #323232",
"+  c #33383C",
"@  c #3E3E3E",
"#  c #3A4045",
"$  c #433B3A",
"%  c #534336",
"&  c #5C4A3B",
"*  c #454545",
"=  c #484745",
"-  c #4B4B4A",
";  c #524A43",
":  c #5C5348",
">  c #555453",
",  c #585653",
"<  c #585856",
"1  c #595959",
"2  c #5F6C76",
"3  c #615653",
"4  c #685F5D",
"5  c #62615F",
"6  c #636262",
"7  c #686766",
"8  c #6D6D6C",
"9  c #697077",
"0  c #716F6C",
"q  c #74726E",
"w  c #757573",
"e  c #7E7D7C",
"r  c #627383",
"t  c #6B7C89",
"y  c #7D848A",
"u  c #7B8995",
"i  c #97361D",
"p  c #9E361B",
"a  c #A23319",
"s  c #A33A1D",
"d  c #BC3F26",
"f  c #B54125",
"g  c #B44734",
"h  c #BB523C",
"j  c #9F695C",
"k  c #8D7E69",
"l  c #807F7C",
"z  c #907D65",
"x  c #A45D4B",
"c  c #AD6B5B",
"v  c #B56A43",
"b  c #B16A58",
"n  c #A4776C",
"m  c #A5796D",
"M  c #AE7568",
"N  c #A77E73",
"B  c #C71A08",
"V  c #C91D0A",
"C  c #CB240D",
"Z  c #CE2A0F",
"A  c #CC2C11",
"S  c #C43D1D",
"D  c #CE3A19",
"F  c #D0270E",
"G  c #D3290F",
"H  c #D12A11",
"J  c #D53214",
"K  c #D33E1D",
"L  c #D93516",
"P  c #DE421D",
"I  c #C64325",
"U  c #C7583B",
"Y  c #C85A3D",
"T  c #C36436",
"R  c #DC6638",
"E  c #D8703C",
"W  c #E2421C",
"Q  c #E44B22",
"!  c #E94E21",
"~  c #E95527",
"^  c #EE6631",
"/  c #F0632F",
"(  c #F06C36",
")  c #F17138",
"_  c #F8793A",
"`  c #C7785C",
"'  c #C97255",
"]  c #D7774B",
"[  c #DA7442",
"{  c #D77A50",
"}  c #D97C52",
"|  c #C77F67",
" . c #EF7D40",
".. c #84827E",
"X. c #8A8578",
"o. c #94846A",
"O. c #9E8A67",
"+. c #A38077",
"@. c #A08D74",
"#. c #A7966E",
"$. c #AB9B71",
"%. c #B78A70",
"&. c #B1897F",
"*. c #B8897F",
"=. c #B29F73",
"-. c #B6A175",
";. c #B6AA7A",
":. c #DC9253",
">. c #CC8167",
",. c #CF876F",
"<. c #EE8547",
"1. c #E29F5B",
"2. c #F48243",
"3. c #F98846",
"4. c #FB934D",
"5. c #FD9E54",
"6. c #E2A25D",
"7. c #FDA458",
"8. c #818085",
"9. c #898887",
"0. c #8D8C8A",
"q. c #8E9499",
"w. c #918F8A",
"e. c #91908D",
"r. c #939291",
"t. c #989794",
"y. c #999895",
"u. c #9C9C9A",
"i. c #A68B84",
"p. c #B18E85",
"a. c #BB8C80",
"s. c #B09C8C",
"d. c #BD9B92",
"f. c #A4A29E",
"g. c #BAA19B",
"h. c #A4A4A4",
"j. c #A8A6A2",
"k. c #A9A8A6",
"l. c #ACACAB",
"z. c #ACB2B7",
"x. c #B6AAA4",
"c. c #B5B4AE",
"v. c #B9B6AE",
"b. c #B1B1B0",
"n. c #B4B9BF",
"m. c #B8B7B3",
"M. c #B9B8B5",
"N. c #BEBDBB",
"B. c #C7A69B",
"V. c #C3AAA3",
"C. c #C0B1AB",
"Z. c #C4BBB7",
"A. c #C1BFBB",
"S. c #C9B7B0",
"D. c #CCBBB4",
"F. c #C3C2BE",
"G. c #C8C2BE",
"H. c #D1C2BC",
"J. c #C5C5C1",
"K. c #CBC6C3",
"L. c #CDCCC9",
"P. c #CFD0CD",
"I. c #D2CFCB",
"U. c #D9CEC9",
"Y. c #D2D1CE",
"T. c #D6D5D3",
"R. c #DAD9D6",
"E. c #DCDCD9",
"W. c #E0DFDA",
"Q. c #E2E1DD",
"!. c #E6E5E2",
"~. c #E7E8E5",
"^. c #E8E7E2",
"/. c #EAEAE6",
"(. c #EDEDEA",
"). c #F1F1EE",
"_. c #F5F5F3",
"`. c None",
/* pixels */
"`.`.`.`.`.`.`.`.`.`.`.`.`.`.`.`.`.`.`.`.`.`.`.`.`.`.`.`.`.`.`.`.",
"`.`.`.`.`.`.`.`.`.`.                                    `.`.`.`.",
"`.`.`.`.`.`.`.`.`.`.  O 1 1 1 1 1 1 1 1 1 1 1 1 1 1 O       `.`.",
"`.`.`.`.`.`.`.`.`.`.  f._.(././././.(././././././._.y.      `.`.",
"`.`.`.`.`.`.`.`.`.`.  h.Y.y.o.#.;.;.-.-.;.;.$.O.X.R.u.      `.`.",
"`.`.  . o o o o o o . k.Y.v.s.v :.6.[ E 6.:.T %.v.T.u.      `.`.",
"`.`.  e N.T.b.b.T.Q.0.j.Y.F.R.N i s a a p i x I.L.Y.u.      `.`.",
"`.`.  e.9.k.e.e.k.Q.e.f.Y.F.R.w.% & % & ; % r.).L.Y.u.      `.`.",
"`.`.  e.0.l M.M...!.e.h.Y.G.Y.w.k z o.@...e t./.L.Y.u.      `.`.",
"`.`.  r.t.e w , = 8 - > 5 1 7 - ; ; : : * @ w c.F.Y.u.      `.`.",
"`.`.  u.A.N.1 I.M.M.T.T.T.T.R.E.R.R.R.E.E.k.= u.F.Y.u.      `.`.",
"`.`.  h./.J.0 E.0 q I.E.W.Q.Q.Q.!.!.^././.T.@ 9 k.Y.u.      `.`.",
"`.`.  h./.x.8 l.> , f.W.W.Q.Q.Q.!.~././.(.T.# r 2 Y.u.      `.`.",
"`.`.  h.!.m 4 9.8...l Q.Q.Q.^.^.~./././.(.T.+ t t Y.u.      `.`.",
"`.`.  h.Q.c , A.T.R.f.C.D.U.E.G.S.I./.(.(.T.# r 8.Y.u.      `.`.",
"`.`.  h./.i.6 /.W.H.,.] } ` >.{ ] ' B.!.(.Y.7 u 8.Y.u.      `.`.",
"`.`.  h.).N.8 (.I.>.<.7.5.2. .4.3.^ U x.~.Y.9 z.q.Y.u.      `.`.",
"`.`.  h._.P.8 ).V.[ 5.4.2.) ( ^ ~ W K M Q.Y.8 n.q.Y.u.      `.`.",
"`.`.  h._.P.8 (.d.^ _ / ! Q W L G F K c E.P.5 l.u.T.u.      `.`.",
"`.`.  h._.P.8 ).Z.Y ! W J J H C B C I p.!.T.1 T.E.(.u.      `.`.",
"`.`.  h._.P.8 _.Q.a.I J A C V B C I b G.(.Y.- u.u.u.1       `.`.",
"`.`.  h._.P.8 _./.E.a.d A V B C S b Z.!.(.T.X               `.`.",
"`.`.  h._.Y.9 _./.(.E.g.g A A f n K./.(.(.T.X               `.`.",
"`.`.  w R.M.8 _.(.(.(.!.V.h f +.I.L.N.).T.l.X               `.`.",
"`.`.  . X . 1 _.(.(.(.(.~.V.p.Y.(.T.8 u.w y.o       `.`.`.`.`.`.",
"`.`.`.      1 _.(.(.(.(.(.!.Q.(.(./.e 7 5 N.X       `.`.`.`.`.`.",
"`.`.`.      1 _.(.(.).(.(.(.).(.(.).A.8 y.R.X       `.`.`.`.`.`.",
"`.`.`.`.`.  @ L.R.T.T.T.T.T.T.T.T.T.Y.l.F.l.X       `.`.`.`.`.`.",
"`.`.`.`.`.    X X X X X X X X X X X X o X .         `.`.`.`.`.`.",
"`.`.`.`.`.`.                                        `.`.`.`.`.`.",
"`.`.`.`.`.`.                                      `.`.`.`.`.`.`.",
"`.`.`.`.`.`.`.                                  `.`.`.`.`.`.`.`."
};
