/* XPM */
static char *glchess[] = {
/* columns rows colors chars-per-pixel */
"32 32 78 1",
"  c #000000",
". c #0C0C0C",
"X c #121212",
"o c #1B1B1B",
"O c #2C2C2C",
"+ c #2F3030",
"@ c #333333",
"# c #353B3D",
"$ c #3C3D3C",
"% c #3F403F",
"& c #3D4344",
"* c #424545",
"= c #414748",
"- c #434849",
"; c #4C4E4E",
": c #4B4F50",
"> c #4C5051",
", c #535656",
"< c #525758",
"1 c #54595A",
"2 c #595C5C",
"3 c #5A5F60",
"4 c #5E6161",
"5 c #66655E",
"6 c #666766",
"7 c #676B6B",
"8 c #696D6D",
"9 c #6B706E",
"0 c #6D7271",
"q c #71726E",
"w c #747574",
"e c #757872",
"r c #797A76",
"t c #7B7E7A",
"y c #7E827E",
"u c #7D8280",
"i c #827C76",
"p c #858683",
"a c #878983",
"s c #8A8B86",
"d c #8C8E89",
"f c #8E918E",
"g c #91928D",
"h c #949691",
"j c #969894",
"k c #999B96",
"l c #9C9E9A",
"z c #A0A29D",
"x c #A4A6A3",
"c c #A6A9A5",
"v c #A9AAA7",
"b c #ABADA9",
"n c #AEB0AC",
"m c #B1B3AF",
"M c #B4B5B2",
"N c #B9BBB6",
"B c #BBBDB8",
"V c #BFC0BC",
"C c #C1C2BF",
"Z c #C4C6C2",
"A c #C6C8C4",
"S c #CACDC7",
"D c #CDCECB",
"F c #CFD1CC",
"G c #D2D5CE",
"H c #D5D6D3",
"J c #D6D9D2",
"K c #D9DCD5",
"L c #DCDFDA",
"P c #DEE1DB",
"I c #E1E3DE",
"U c #E4E6E2",
"Y c #E7E8E4",
"T c #E9EAE7",
"R c #EDEEEB",
"E c #F2F2F0",
"W c gray100",
"Q c None",
/* pixels */
"QQQQQQQQQQQQQQQQQQQQQQQQQQQQQQQQ",
"QQQQQQQQQQQQQQQQQQQQQQQQQQQQQQQQ",
"QQQQQQQQQQQQQQQQQQQQQQQQQQQQQQQQ",
"QQQQQQQQQQQQQQQQQQQQQQQQQQQQQQQQ",
"QQQQQQQQQQQQQQQQQQQQQQQQQQQQQQQQ",
"QQQQQQQQQQQQQQQQQQrskkkgtQQQQQQQ",
"QQQQQQQQQQQQQQQQQ8gMKLKClsQQQQQQ",
"QQQQQQQQQQQQQQQQQaMUUKJLZjQQQQQQ",
"QQQQQQQQQQQQQQQQQkKTIKGJLnqQQQQQ",
"QQQQQQQQQQQQQQQQQkIUIKGGLmqQQQQQ",
"QQQQQQQQQQQQQQQQQkIIIJGGLmqQQQQQ",
"QQQQQQQQQQQQQQQQQgCTIJGKGz5QQQQQ",
"QQQQQQQQQQQQQQQQQelAIIIGvaQQQQQQ",
"QQQQQQQQQQQQQQQQQQahbBmkaQQQQQQQ",
"QQQQQQQQQQQQQQQQQQQelNcaQQQQQQQQ",
"QQQQQQQQQQQQQQQQQQQ;dmjeQQQQQQQQ",
"QQQQOOOOOOOOOOOO+OO$kUN,O++@QQQQ",
"QQQQ+8xcxcxcxxx7;;;2VPF9:;%OQQQQ",
"QQQQ@cRTUUIIPPPy&->gUPPb2>,+QQQQ",
"QQQ 1CTUPPPPKKJy->yHYKJPj21%.QQQ",
"QQQXwPTYUPPPKKKy>eSTYKGPKg7-oQQQ",
"QQQ@4t000000009fjnTYYKGFLZlwOQQQ",
"QQQ%<&###&##&##xVATYUKGHHKmM%QQQ",
"QQO-2-&-&-&-&&&cBVTTYKGHKHmH,oQQ",
"QQ@22:>>:>::::>bScAPYULLSbCUpOQQ",
"  @331<11<<<1>>nPZbvbvbbbZUEbO  ",
" .-w09888878777BYUUHFDHHURREF1  ",
" o$;>>::;>>;>>;6wwwwwwrrwrrwq-X ",
" ooX............             oo ",
"QQQ                          QQQ",
"QQQQQQQQQQQQQQQQQQQQQQQQQQQQQQQQ",
"QQQQQQQQQQQQQQQQQQQQQQQQQQQQQQQQ"
};
