/* XPM */
static char *glines[] = {
/* columns rows colors chars-per-pixel */
"32 32 257 2",
"   c #000000",
".  c #050805",
"X  c #0B0402",
"o  c #0C0907",
"O  c #0B0B0B",
"+  c #0E0E11",
"@  c #0D150C",
"#  c #0E1213",
"$  c #160704",
"%  c #120805",
"&  c #1E0E0B",
"*  c #190C07",
"=  c #100F11",
"-  c #131216",
";  c #131912",
":  c #15191F",
">  c #1A171C",
",  c #1B1A1D",
"<  c #1F1D21",
"1  c #142012",
"2  c #1C281A",
"3  c #1E301A",
"4  c #210C07",
"5  c #250D08",
"6  c #25120D",
"7  c #33130C",
"8  c #3B1F11",
"9  c #271A18",
"0  c #201C21",
"q  c #242225",
"w  c #222E20",
"e  c #29242B",
"r  c #2B282C",
"t  c #22282A",
"y  c #2D2C30",
"u  c #272B33",
"i  c #253421",
"p  c #2F3D2C",
"a  c #2D322C",
"s  c #2D3938",
"d  c #332420",
"f  c #322D34",
"g  c #303129",
"h  c #313A2F",
"j  c #373139",
"k  c #36393F",
"l  c #3A343D",
"z  c #3D393E",
"x  c #353236",
"c  c #3D3640",
"v  c #3A3F4A",
"b  c #294223",
"n  c #2F4B29",
"m  c #31412E",
"M  c #354033",
"N  c #3E4137",
"B  c #3A4F35",
"V  c #3F4A3D",
"C  c #394338",
"Z  c #35532E",
"A  c #385A30",
"S  c #3E6236",
"D  c #364543",
"F  c #3D4555",
"G  c #40170F",
"H  c #451F17",
"J  c #4D1C12",
"K  c #541F14",
"L  c #4C2C1A",
"P  c #43322E",
"I  c #5D3821",
"U  c #573C31",
"Y  c #7B2E1D",
"T  c #762F20",
"R  c #753C30",
"E  c #433C46",
"W  c #44573F",
"Q  c #5A423C",
"!  c #46713D",
"~  c #67473F",
"^  c #76483F",
"/  c #7F4134",
"(  c #454047",
")  c #48434A",
"_  c #424B5D",
"`  c #4E4652",
"'  c #4E4950",
"]  c #455642",
"[  c #4E5E4A",
"{  c #4D525B",
"}  c #5B4540",
"|  c #504654",
" . c #564F59",
".. c #57565D",
"X. c #4C5566",
"o. c #5B5C62",
"O. c #585665",
"+. c #4D7B43",
"@. c #4D7144",
"#. c #52654E",
"$. c #576354",
"%. c #51734B",
"&. c #507847",
"*. c #557B4D",
"=. c #5F785A",
"-. c #5D7D56",
";. c #596070",
":. c #6F5043",
">. c #764940",
",. c #605364",
"<. c #645B67",
"1. c #665B6B",
"2. c #695B6E",
"3. c #60755B",
"4. c #676469",
"5. c #66696D",
"6. c #626961",
"7. c #676E7C",
"8. c #686D77",
"9. c #677F62",
"0. c #697168",
"q. c #6B717E",
"w. c #736579",
"e. c #726A75",
"r. c #7A6A7F",
"t. c #76697B",
"y. c #7A7669",
"u. c #747063",
"i. c #7B747D",
"p. c #7C6C82",
"a. c #7E7283",
"s. c #787E8B",
"d. c #518146",
"f. c #55834B",
"g. c #59874E",
"h. c #5A8750",
"j. c #5D8A53",
"k. c #618D57",
"l. c #698B62",
"z. c #6D9564",
"x. c #72896D",
"c. c #7A8477",
"v. c #709867",
"b. c #73996A",
"n. c #7D9677",
"m. c #7A9E71",
"M. c #7DA074",
"N. c #7E8186",
"B. c #803120",
"V. c #873928",
"C. c #9C3A25",
"Z. c #9B422E",
"A. c #B3442C",
"S. c #B64A32",
"D. c #BA523C",
"F. c #824F44",
"G. c #835045",
"H. c #8F6B5C",
"J. c #916D65",
"K. c #A05B4C",
"L. c #B45F4D",
"P. c #BB5641",
"I. c #BC5A44",
"U. c #BE5F4A",
"Y. c #BF624E",
"T. c #B66756",
"R. c #B57B6D",
"E. c #C46D5A",
"W. c #C67260",
"Q. c #C27D6E",
"!. c #CA7C6C",
"~. c #C47F70",
"^. c #817186",
"/. c #837489",
"(. c #857D89",
"). c #8A7C8F",
"_. c #8B7D90",
"`. c #849F7D",
"'. c #98817C",
"]. c #84A57C",
"[. c #CA8577",
"{. c #CD887A",
"}. c #8B808F",
"|. c #848185",
" X c #858B97",
".X c #8E8292",
"XX c #8A9487",
"oX c #928696",
"OX c #948698",
"+X c #948D97",
"@X c #958999",
"#X c #998E9D",
"$X c #909D8E",
"%X c #979398",
"&X c #9F93A4",
"*X c #9E9BA0",
"=X c #86A181",
"-X c #8CAB85",
";X c #8FAE88",
":X c #89A483",
">X c #9BAE98",
",X c #92B08B",
"<X c #9CB197",
"1X c #A195A5",
"2X c #A299A5",
"3X c #A69CAA",
"4X c #A99FAD",
"5X c #A1AD9F",
"6X c #A6A9AE",
"7X c #ABA1AF",
"8X c #ACA3B1",
"9X c #ACACB3",
"0X c #A6AAB3",
"qX c #AFBCAE",
"wX c #B2ADB4",
"eX c #B5ADB9",
"rX c #B6B6BC",
"tX c #BCBBC2",
"yX c #AAC2A4",
"uX c #AFC6AA",
"iX c #B2C8AE",
"pX c #B9CAB6",
"aX c #BDCEBA",
"sX c #BFD1BA",
"dX c #D89B8E",
"fX c #D49182",
"gX c #D7A89F",
"hX c #DCAA9F",
"jX c #D9A093",
"kX c #CAA8A2",
"lX c #D8BBB5",
"zX c #E4BAB1",
"xX c #C3BBC6",
"cX c #E2C2BC",
"vX c #CDC8CF",
"bX c #CAC4CD",
"nX c #CCCED3",
"mX c #C7D6C3",
"MX c #CFDCCC",
"NX c #C9D9C5",
"BX c #D1CCD3",
"VX c #D0DCCD",
"CX c #DAD6DC",
"ZX c #DCD8DE",
"AX c #D1D3D8",
"SX c #DFDBE0",
"DX c #DDE7DB",
"FX c #EBCAC3",
"GX c #F2DFDB",
"HX c #E1DEE3",
"JX c #F3E0DC",
"KX c #E6E3E8",
"LX c #E7EEE6",
"PX c #E9E6EA",
"IX c #EEECEF",
"UX c #F1F5F0",
"YX c None",
/* pixels */
"YXYX          YXYX    X X     YXYXYXYXYXYXYXYXYX  . O .   YXYXYX",
"YX  ; #.XXc.h .   X Q '.'.Q X     YXYXYXYXYXYX  x (.%Xi.q     YX",
"YX@ x.DXNXsX<Xm X ^ cXFXzXgX>.X     YXYXYXYX  f wXHXBXbX+X0     ",
"  i ,XLXyX].].&.8 T.GXzX!.!.L.7       YXYXYXO 1.bXPX3X1X#X|     ",
"  Z j.m.k.f.f.+.I S.E.U.S.S.S.J       YXYXYX- 2._.@X^.p.a.O.X   ",
"  n d.d.d.d.d.@.L A.A.A.A.A.A.G       YXYXYXO ,.p.p.p.p.p.| .   ",
"  1 *.m.m.M.z.n * V.E.W.W.E.V.$       YXYXYX  j _.1X&X&Xa.0     ",
"YX  i 9.=Xn.W @   6 F.R.R.G.6                 . E (.#Xa.f .     ",
"YX    O ; @       . N y.u.g     X r <.4.l O       O = o         ",
"YXYX            . [ pXMXmX>Xm   j wXCXCXrX...                   ",
"YXYXYX          2 ].UXpX;X,X-.2 a.KXHX4X8XOXe                 YX",
"YXYXYXYX    YX  b k.,Xb.h.j.*.V r.3X2X/././.E               YXYX",
"YXYXYXYXYXYXYX  b d.d.d.&.d.+.C w.r.r.r.p.p.l       YXYXYXYXYXYX",
"YXYXYXYXYXYXYX  ; +.z.v.v.z.S ; O.oXOXOXOXw.>       YXYXYXYXYXYX",
"YXYXYXYXYXYXYXYX  i x.-X:X=.;   0 e.2X3X(.x         YXYXYXYXYXYX",
"YXYXYXYXYXYXYXYX    p 0.6.w     X O r f >       X d P 9 X   YXYX",
"YXYXYXYXYXYXYXYX  z 8XBXvX*Xf                 & J.lXcXkX} X     ",
"YXYXYXYXYXYXYX  > oXIXBXeXeXa.=             X R cXGXdXdX!.L     ",
"YXYXYXYXYXYXYX  j _.xX3X_._.^.e             4 Z.fXhXE.D.P.Y X   ",
"YXYXYXYXYXYXYX  l p.p.t.p.p.p.r       YXYXYX5 C.A.A.A.A.A.Y X   ",
"YXYXYXYXYXYXYX  < w._._._._.2.-       YXYXYXX B.D.P.P.D.S.K     ",
"YXYXYX      YXYX. c @X4X7X.Xf       YXYXYXYX  7 K.[.{.[./ %     ",
"YXYX  O q ,       . 0 ) ( <         , < o   YX  6 :.H.U %       ",
"YX  j %XrXwX4.+                 - 5.6X9XN.t   O $.5XqX$XM       ",
"  0 2XPXBXxXeX .              . _ nXAX0X0X7.# Z aXDXiXuXM.2 .   ",
"  E 2XSX8XOX@Xt.-           YX# ;.tXrXp.7.;.s @.yXmXm.b.z.Z .   ",
"  | /./.p.p.p.w.>       YXYXYX: F X.X._ _ _ D ! g.g.d.d.d.A .   ",
"  l p./././.^.2.O       YXYXYX+ F X.X.X.X._ u A g.g.g.g.f.b     ",
"  = 2.2X7X4X.Xf         YXYXYX  u q.N. XN.D . 2 l.-X;X-X%.@     ",
"YX  - ' e.<.y .         YXYXYX  . u X.;.c O . . w #.3.] ;       ",
"YXYX    .             YXYXYXYXYX    . .                         ",
"YXYX                YXYXYXYXYXYX                                "
};
