/* XPM */
static char *gnect[] = {
/* columns rows colors chars-per-pixel */
"32 32 237 2",
"   c #000000",
".  c #060709",
"X  c #0A0402",
"o  c #0B0C0D",
"O  c #110503",
"+  c #130806",
"@  c #130908",
"#  c #1D0A06",
"$  c #100F11",
"%  c #1E100D",
"&  c #111215",
"*  c #14171C",
"=  c #17181B",
"-  c #1D1310",
";  c #1E1C1E",
":  c #1A1D22",
">  c #1D2129",
",  c #200B07",
"<  c #240F0B",
"1  c #22110D",
"2  c #2B120D",
"3  c #211614",
"4  c #271915",
"5  c #2B1715",
"6  c #2C1A16",
"7  c #34130C",
"8  c #3B150D",
"9  c #341612",
"0  c #301C1B",
"q  c #381710",
"w  c #391912",
"e  c #3B1F19",
"r  c #37231E",
"t  c #3B221D",
"y  c #202225",
"u  c #20242A",
"i  c #282226",
"p  c #252A32",
"a  c #292C31",
"s  c #292F3B",
"d  c #2C323C",
"f  c #342421",
"g  c #312A2E",
"h  c #3E2422",
"j  c #362F31",
"k  c #303235",
"l  c #32363D",
"z  c #36393F",
"x  c #383235",
"c  c #2E3541",
"v  c #343B46",
"b  c #363F4E",
"n  c #3E3F42",
"m  c #3D424B",
"M  c #3B4453",
"N  c #3C4758",
"B  c #421C14",
"V  c #49251D",
"C  c #56271D",
"Z  c #592115",
"A  c #5A271B",
"S  c #472923",
"D  c #4C2D26",
"F  c #4C312C",
"G  c #453430",
"H  c #413238",
"J  c #493733",
"K  c #4C3936",
"L  c #512D2A",
"P  c #5B2B24",
"I  c #55302D",
"U  c #5C352C",
"Y  c #612417",
"T  c #6F2E1F",
"R  c #712B1C",
"E  c #7B2E1D",
"W  c #632F27",
"Q  c #66352B",
"!  c #6B3022",
"~  c #6F342B",
"^  c #7D3B2C",
"/  c #674037",
"(  c #684138",
")  c #464A4F",
"_  c #4D4548",
"`  c #4F484B",
"'  c #414752",
"]  c #434A54",
"[  c #424B5D",
"{  c #494D54",
"}  c #4A4F58",
"|  c #4D5055",
" . c #504A4B",
".. c #52565D",
"X. c #444E60",
"o. c #4C5565",
"O. c #565B65",
"+. c #545C6D",
"@. c #5E626B",
"#. c #5A6271",
"$. c #614B49",
"%. c #6F524C",
"&. c #61595C",
"*. c #6C5652",
"=. c #704940",
"-. c #724F4A",
";. c #794D44",
":. c #71524C",
">. c #735E59",
",. c #7A5751",
"<. c #665E62",
"1. c #7B635E",
"2. c #66696F",
"3. c #6B6468",
"4. c #666D7A",
"5. c #6A717E",
"6. c #70757E",
"7. c #75797F",
"8. c #7E7272",
"9. c #6C7380",
"0. c #737985",
"q. c #767D89",
"w. c #7A7C83",
"e. c #787E8B",
"r. c #7E8186",
"t. c #7C818C",
"y. c #80301E",
"u. c #863E2E",
"i. c #8B3422",
"p. c #8B3827",
"a. c #9A3A26",
"s. c #983C28",
"d. c #A03D28",
"f. c #974331",
"g. c #914839",
"h. c #9F4532",
"j. c #A5412C",
"k. c #AC412A",
"l. c #A34632",
"z. c #AF4933",
"x. c #AE533E",
"c. c #B4442C",
"v. c #B74C35",
"b. c #B84C35",
"n. c #B84F39",
"m. c #B8513A",
"M. c #864D41",
"N. c #815349",
"B. c #89594F",
"V. c #8B5A50",
"C. c #91574B",
"Z. c #9E594B",
"A. c #84655F",
"S. c #9F665A",
"D. c #866D67",
"F. c #9C7E77",
"G. c #A55A4A",
"H. c #AD5441",
"J. c #BC5944",
"K. c #BC5E4A",
"L. c #AE614F",
"P. c #A6695C",
"I. c #AE6150",
"U. c #AF6C5E",
"Y. c #B96B5A",
"T. c #A86E61",
"R. c #AA776C",
"E. c #B47163",
"W. c #BB7C6F",
"Q. c #BA7E72",
"!. c #C05E49",
"~. c #C0604C",
"^. c #C16653",
"/. c #C46E5B",
"(. c #C6725F",
"). c #C67260",
"_. c #C57968",
"`. c #CA7D6D",
"'. c #C28274",
"]. c #C68578",
"[. c #CE8575",
"{. c #CC887A",
"}. c #D0897A",
"|. c #80848A",
" X c #858B96",
".X c #878D98",
"XX c #8A8E94",
"oX c #898E9A",
"OX c #8E939D",
"+X c #9095A0",
"@X c #969AA3",
"#X c #9A9FA9",
"$X c #9DA1AB",
"%X c #A08984",
"&X c #AA8D87",
"*X c #B68F88",
"=X c #BB9F98",
"-X c #A2A6AD",
";X c #A2A7B0",
":X c #AAADB4",
">X c #AEB1B6",
",X c #B3B6BE",
"<X c #BDBFC5",
"1X c #BDC0C5",
"2X c #C38F83",
"3X c #C59C94",
"4X c #C29F98",
"5X c #D69487",
"6X c #D39588",
"7X c #DCA69A",
"8X c #DDA99E",
"9X c #C1A5A0",
"0X c #C7ABA6",
"qX c #C8ADA7",
"wX c #D2A9A1",
"eX c #DFACA2",
"rX c #DFB1A8",
"tX c #E2B5AB",
"yX c #E4B8AF",
"uX c #E3BBB3",
"iX c #DFC1BB",
"pX c #E4C2BC",
"aX c #C2C5CA",
"sX c #C8CBD0",
"dX c #CED1D5",
"fX c #D4D6DA",
"gX c #DDDFE3",
"hX c #DFE1E4",
"jX c #E9C7C0",
"kX c #EACCC6",
"lX c #EDD1CB",
"zX c #F2DBD6",
"xX c #F4E1DD",
"cX c #E2E4E7",
"vX c #E8E9EB",
"bX c #F6E6E3",
"nX c None",
/* pixels */
"nXnXnXnXnXnXnXnXnXnXnXnXnXnXnXnXnXnXnXnXnXnXnXnX    X     nXnXnX",
"nXnXnXnXnXnXnXnXnXnXnXnXnXnXnXnXnXnXnXnXnXnXnX  h D.%X1.4     nX",
"nXnXnXnXnXnXnXnXnXnXnXnXnXnXnXnXnXnXnXnXnXnX  e 3XlXuXtXR.2     ",
"nXnXnXnXnXnXnXnXnXnXnXnXnXnXnXnXnXnXnXnXnXnXX u.tXxX[.`.).!     ",
"nXnXnXnXnXnXnXnXnXnXnXnXnXnXnXnXnXnXnXnXnXnX, a.K./.v.b.b.i.X   ",
"nXnXnXnXnXnXnXnXnXnXnXnXnXnXnXnXnXnXnXnXnXnX# i.c.c.c.c.c.E     ",
"nXnXnXnXnXnXnXnXnXnXnXnXnXnXnXnXnXnXnXnXnXnX  Z K.).).(.H.8     ",
"nXnXnXnXnXnXnXnXnXnXnXnXnXnXnXnXnX            X U T.Q.P.V X     ",
"nXnXnXnXnXnXnXnXnXnXnXnXnXnXnXnX  f *.>.G @     ; &.8.` o       ",
"nXnXnXnXnXnXnXnXnXnXnXnXnXnXnX  L 3XkXjXwX( X : XXsXaX<X@.o     ",
"nXnXnXnXnXnXnXnXnXnXnXnXnXnXnX# G.zXlX}.}.Y.B ' aXcXOXoXe.p     ",
"nXnXnXnXnXnXnXnXnXnXnXnXnXnXnX8 z.[._.m.m.v.~ M 0. X+.o.o.c     ",
"nXnXnXnXnXnXnXnXnXnXnXnXnXnXnX7 d.c.c.c.c.c.W b [ [ [ [ X.d     ",
"nXnXnXnXnXnXnXnXnXnXnXnXnXnXnXO p.!.^.~.^.l.2 s #.4.4.4.o.:     ",
"nXnXnX      nXnXnXnX      nXnX  7 C.].].P.V   o { t. X6.d .     ",
"nX    > n k o   nX  3 K J -   nX  3 $.*.f       & { 2.z .       ",
"nX  ] >XsX1Xw.=   F 4XiXiX*Xh   : r.1XaX@Xl   & 7.1XaX:X} .     ",
"  : OXvX,X@X+X] 2 E.bXuX5X5XZ.< O.fXfX#X#X5.* m aXcX$X@Xt.u     ",
"  d 9.:X0.+.+.[ P J.7X[.J.J.b.L o.;X#X#.#.+.c N oX$X#.#.+.c     ",
"  d [ [ [ [ [ N W c.c.c.c.c.c.I N [ [ [ [ N v M [ [ [ [ [ d .   ",
"  : X.#.+.#.+.v 9 j.J.J.K.J.s.6 M +.+.+.+.[ : c +.#.#.#.o.:     ",
"nX. v t.OX X@.*   C E.{.[.U.B   > 4..X.Xw.v   & O. XoXt.m .     ",
"nX  . g <. .&       h ,.-.6       ; &.3.g .     & _ <.x .       ",
"nX  F &XqX=X:.+   y r.:X-X2.&   % A.9X0XF.r   + :.=XqX&XF       ",
"  q 2XxXyX7X6XQ $ 6.gXaX:X$X} @ M.kXlX8X7XP.< Q uXzXeX8XQ.w     ",
"X R [.lX[.^.^.l.g 5.dX@X4.4.o.h H.uXrX^.^.J.R f.7XpX(.^.K.R     ",
"X y.b.m.b.c.c.j.H X.o.o.X.X.[ L k.b.v.c.c.c.i.a.b.b.c.c.c.y.X   ",
"  Y c.b.v.b.b.i.i [ o.o.o.o.M 0 d.b.n.v.n.c.Z i.b.v.v.v.b.Y     ",
"  , g.`.[.[.I.B . v e..X X5.p X A Y.[.[._.^ X B I.[.[.[.g.,     ",
"nX  1 / B.;.t     o z O...p .   X S N.B.U #     e ;.B.( <       ",
"nXnX    X             .             X                           ",
"nXnX                                                            "
};
