/* XPM */
static char *gnibbles[] = {
/* columns rows colors chars-per-pixel */
"32 32 168 2",
"   c #000000",
".  c #070807",
"X  c #080707",
"o  c #080907",
"O  c #0B0B0A",
"+  c #0E120E",
"@  c #100F0D",
"#  c #10130F",
"$  c #131412",
"%  c #161A14",
"&  c #181614",
"*  c #191A16",
"=  c #1D1D1B",
"-  c #1C221A",
";  c #20241E",
":  c #20281F",
">  c #242620",
",  c #242A22",
"<  c #292723",
"1  c #2A2C25",
"2  c #2A2A2A",
"3  c #2C342A",
"4  c #2D382B",
"5  c #34342E",
"6  c #363633",
"7  c #353C31",
"8  c #3C3C34",
"9  c #354232",
"0  c #3A4236",
"q  c #3E453A",
"w  c #403F38",
"e  c #434039",
"r  c #444444",
"t  c #454A40",
"y  c #4B4C42",
"u  c #4E4E4E",
"i  c #445441",
"p  c #4C5245",
"a  c #4F5749",
"s  c #4F5D4A",
"d  c #55554B",
"f  c #535C4D",
"g  c #58564F",
"h  c #5A594F",
"j  c #555E50",
"k  c #5B5D51",
"l  c #55614E",
"z  c #576451",
"x  c #556851",
"c  c #5C6454",
"v  c #5F6759",
"b  c #5C6B55",
"n  c #5E6E59",
"m  c #626256",
"M  c #65675A",
"N  c #646B5A",
"B  c #6D685F",
"V  c #64735D",
"C  c #68735F",
"Z  c #636462",
"A  c #666C61",
"S  c #6B6E61",
"D  c #677661",
"F  c #677860",
"G  c #6B7462",
"H  c #6C7A64",
"J  c #6F7D69",
"K  c #746E64",
"L  c #717665",
"P  c #777468",
"I  c #717A66",
"U  c #727D6A",
"Y  c #787368",
"T  c #7A7D6D",
"R  c #747474",
"E  c #7D7D7D",
"W  c #6E8167",
"Q  c #74826B",
"!  c #768371",
"~  c #7C8473",
"^  c #7B8A74",
"/  c #7E9175",
"(  c #868575",
")  c #838D77",
"_  c #828E7D",
"`  c #8B857A",
"'  c #8A8E7B",
"]  c #85937A",
"[  c #8B937D",
"{  c #8A987E",
"}  c #848584",
"|  c #888986",
" . c #8D9384",
".. c #8F968B",
"X. c #8C9C82",
"o. c #918D83",
"O. c #909088",
"+. c #959E86",
"@. c #929C8E",
"#. c #989489",
"$. c #999887",
"%. c #9C9F8C",
"&. c #919191",
"*. c #9A9A9A",
"=. c #92A386",
"-. c #96A689",
";. c #96A88A",
":. c #9DA48C",
">. c #9CAA8E",
",. c #97A194",
"<. c #9FA490",
"1. c #9FA99C",
"2. c #A3A393",
"3. c #A4A894",
"4. c #A2AC9F",
"5. c #A8A799",
"6. c #AAAD97",
"7. c #A9AC9A",
"8. c #A8B197",
"9. c #AAB199",
"0. c #B1AF9F",
"q. c #B1B69F",
"w. c #A6A6A6",
"e. c #ACACAC",
"r. c #ADB5AA",
"t. c #B0B5A4",
"y. c #B5B6AE",
"u. c #B5BCA6",
"i. c #BBB5A6",
"p. c #BEB6AA",
"a. c #BBBBAD",
"s. c #B1B1B1",
"d. c #B5BBB4",
"f. c #BBBAB2",
"g. c #BEBEBE",
"h. c #BAC1AC",
"j. c #BCC0B2",
"k. c #C0C7AF",
"l. c #C1C4B5",
"z. c #C3C5BA",
"x. c #C4CAB4",
"c. c #C6CBBD",
"v. c #C8C6BE",
"b. c #C9CCBC",
"n. c #C9D0BD",
"m. c #D2CBBF",
"M. c #CBCEC7",
"N. c #CCCDCA",
"B. c #CDD2C4",
"V. c #D4CDC1",
"C. c #D1D4CA",
"Z. c #D3D8C8",
"A. c #DBD7CE",
"S. c #D4D5D3",
"D. c #D6D8D1",
"F. c #DDDBD4",
"G. c #DBDBDA",
"H. c #DFE0DC",
"J. c #E2E2DD",
"K. c #E8E3DC",
"L. c #E5E6E4",
"P. c #EDEEEC",
"I. c #F1EFEB",
"U. c #F1F2EF",
"Y. c #F3F3F2",
"T. c #F9F8F6",
"R. c #FDFEFD",
"E. c None",
/* pixels */
"E.E.E.E.E.E.E.E.E.E.E.E.E.E.E.E.E.E.E.  $ 2 @   E.E.E.E.E.E.E.E.",
"E.E.E.E.E.E.E.E.E.E.E.      X O o X X 2 w.N.e.6         E.E.E.E.",
"E.E.E.E.E.E.E.E.E.  O < e S o.#.` Y h e.R.R.R.g.r E Z =     E.E.",
"E.E.E.E.E.E.E.  X 5 ` p.A.K.F.F.M.0.o.L.R.R.G.&.} L.R.e.&     E.",
"E.E.E.E.E.E.  = K p.K.T.U.H.B.z.f.6.O.U.R.R.*.O = E R.U.r       ",
"E.E.E.E.E.  & ` m.U.T.U.J.C.z.x.a.6.o.S.R.R.S.R R S.R.G.2       ",
"E.E.E.E.E.X B m.Y.T.L.S.B.Z.n.x.q.9.' | P.R.U.| } N.s.u         ",
"E.E.E.E.  8 i.U.Y.H.C.c.z.x.h.h.8.8.:.f Z } Z e a Z -           ",
"E.E.E.  & o.F.P.G.M.b.b.a.:.U B M I [ ) c c f J =.X.q         E.",
"E.E.E.  y p.J.S.Z.B.b.9.M 1 X     o ; p U ] { =.;.=.C o     E.E.",
"E.E.E.X P M.C.j.f.h.3.7                 * p ^ =.;./ 3       E.E.",
"E.E.E.* #.a.d.a.u.6.m X                     * q 0 ;         E.E.",
"E.E.  w 5.a.7.t.h. .=           E.                          E.E.",
"E.E.  h 2.t.u.h.8.N X           $ 3 7 , % o                 E.E.",
"E.E.  h #.%.2.:.-.y         o t ..r.4._ W x 0 $         E.E.E.E.",
"E.E.  h ( ' +.+.[ 5         ;  .M.d.*._ ! ^ F s 3 .     E.E.E.E.",
"E.E.X k T T +.>.{ 1         = U 1.@.^ H D n b D b 7 .     E.E.E.",
"E.E.o k T ] :.-.] 8       E.. q H J H D D D n H n n ,       E.E.",
"E.E.  y ( ) [ ) ^ f X     E.  X - 7 p l V G V D W H i o     E.E.",
"E.E.  6 S T ] ] ^ C %     E.E.      . + 3 b G D D D V -       E.",
"E.E.  > M S ~ X.X.Q l $     E.            q J J F Q W 4       E.",
"E.E.E.@ h S ~ ..X.U H l : % O o X X O @ = t D J J W Q i X     E.",
"E.E.E.  8 L ~ ^ Q H F F H ~ D c a a z v A G J U J I V 4       E.",
"E.E.E.  = k S G U / ^ H J ~ / ^ ! U U U J U U T U U Q ,       E.",
"E.E.E.E.  8 m k m U ] F D F W Q W I U Q I I U J I C x #       E.",
"E.E.E.E.  $ d M N Q F C J F C V V C C I U I I J W e % .       E.",
"E.E.E.E.E.  * k G N m N Q / C C C C C I L L C V n -           E.",
"E.E.E.E.E.E.  $ e m h p z Q x b V N x x V V 9 , #           E.E.",
"E.E.E.E.E.      X O * = , , = , 4 : - - - +               E.E.E.",
"E.E.E.E.E.E.                                            E.E.E.E.",
"E.E.E.E.E.E.E.E.                                      E.E.E.E.E.",
"E.E.E.E.E.E.E.E.E.                                E.E.E.E.E.E.E."
};
