/* XPM */
static char *gnobots2[] = {
/* columns rows colors chars-per-pixel */
"32 32 168 2",
"   c #000000",
".  c #050709",
"X  c #06090C",
"o  c #0C0605",
"O  c #080807",
"+  c #0B0A09",
"@  c #0B0F13",
"#  c #0D1117",
"$  c #0F171F",
"%  c #100703",
"&  c #130A05",
"*  c #11100F",
"=  c #151412",
"-  c #171B1F",
";  c #1C1B1A",
":  c #121B26",
">  c #181D21",
",  c #17232E",
"<  c #172431",
"1  c #1D2D3D",
"2  c #23100B",
"3  c #271A13",
"4  c #201F1C",
"5  c #321208",
"6  c #351A17",
"7  c #23211E",
"8  c #252220",
"9  c #282522",
"0  c #2A2D2F",
"q  c #242832",
"w  c #2A2E31",
"e  c #2E3336",
"r  c #333333",
"t  c #36333B",
"y  c #3E3A35",
"u  c #393939",
"i  c #283846",
"p  c #304455",
"a  c #32485C",
"s  c #344B60",
"d  c #385066",
"f  c #3B546A",
"g  c #3A5774",
"h  c #3D5A76",
"j  c #3F5C78",
"k  c #43150A",
"l  c #471D0F",
"z  c #4E1B0D",
"x  c #4D2916",
"c  c #4F291E",
"v  c #532B1F",
"b  c #5D2412",
"n  c #5F2A16",
"m  c #6A220F",
"M  c #46413C",
"N  c #61452F",
"B  c #444343",
"V  c #4C4741",
"C  c #56444A",
"Z  c #534C46",
"A  c #544F48",
"S  c #5D474C",
"D  c #435E76",
"F  c #445F78",
"G  c #44627C",
"H  c #624B51",
"J  c #605C52",
"K  c #6E715A",
"L  c #776E65",
"P  c #7D756A",
"I  c #476580",
"U  c #486782",
"Y  c #496883",
"T  c #842C17",
"R  c #8B2F16",
"E  c #8B301B",
"W  c #912E14",
"Q  c #95371B",
"!  c #9A391C",
"~  c #973F24",
"^  c #B73C1B",
"/  c #A13E28",
"(  c #82433B",
")  c #954D39",
"_  c #A14D29",
"`  c #AC4022",
"'  c #AF432B",
"]  c #AE4926",
"[  c #A05536",
"{  c #B14322",
"}  c #BF4523",
"|  c #AA633C",
" . c #BB6235",
".. c #974F45",
"X. c #9E5248",
"o. c #857D72",
"O. c #9B7B6D",
"+. c #B35E45",
"@. c #C0411E",
"#. c #D9451F",
"$. c #C84823",
"%. c #CD4E29",
"&. c #D54924",
"*. c #DB4A23",
"=. c #D5532A",
"-. c #D25B2F",
";. c #DD542A",
":. c #DB5C2F",
">. c #DE5D30",
",. c #CE6A3A",
"<. c #CF703D",
"1. c #D06D3B",
"2. c #DB6535",
"3. c #E14B22",
"4. c #E05027",
"5. c #E25429",
"6. c #E1592D",
"7. c #E8552A",
"8. c #E05F31",
"9. c #E16233",
"0. c #E26937",
"q. c #E46E3B",
"w. c #DB7443",
"e. c #DC7354",
"r. c #E37E4B",
"t. c #E67858",
"y. c #EA7A59",
"u. c #898076",
"i. c #938A7E",
"p. c #A58755",
"a. c #A1917D",
"s. c #C4B168",
"d. c #E4814D",
"f. c #9B8F83",
"g. c #9E9488",
"h. c #B3A38E",
"j. c #B5A699",
"k. c #B7AC9E",
"l. c #BEB3A4",
"z. c #C2B29F",
"x. c #D1A896",
"c. c #C2B5A6",
"v. c #C3B7A8",
"b. c #C9BDAD",
"n. c #E5B9A5",
"m. c #E9BBA7",
"M. c #CFC2B1",
"N. c #D0C0AB",
"B. c #DAC6AD",
"V. c #DDC8AD",
"C. c #DCCBB4",
"Z. c #DCCBBB",
"A. c #E2C6A4",
"S. c #E1CBAF",
"D. c #E2CDB3",
"F. c #E0CFBC",
"G. c #E8CFBD",
"H. c #E7D0B3",
"J. c #E6D4BC",
"K. c #E3D4C1",
"L. c #E7D9C6",
"P. c #EBD5C2",
"I. c #ECDAC5",
"U. c #EDDCC9",
"Y. c #F2DFC7",
"T. c #F1DECB",
"R. c #F1E1CC",
"E. c None",
/* pixels */
"E.E.E.E.E.E.E.E.E.E.E.E.E.              E.  E.E.E.E.E.E.E.E.E.E.",
"E.E.E.E.E.E.E.E.E.E.E.E.E.                    E.E.E.E.E.E.E.E.E.",
"E.E.E.E.E.E.E.E.E.E.E.    + 4 4 4 4 =       E.  E.E.E.E.E.E.E.E.",
"E.E.E.E.E.E.E.E.E.E.E.    y k.c.c.v.u.+         E.E.E.E.E.E.E.E.",
"E.E.E.E.E.E.E.E.E.E.E.O y P J.R.R.Y.z.Z 7       E.E.E.E.E.E.E.E.",
"E.E.E.E.E.E.E.E.E.E.E.= N.D.a.b.T.h.h.K.P       E.E.E.E.E.E.E.E.",
"E.E.E.E.E.E.E.E.E.E.E.= Z.I.B.S.H.V.C.R.u.      E.E.E.E.E.E.E.E.",
"E.E.E.E.E.E.E.E.E.E.E.= v.K.T.S.A.P.U.Z.L       E.E.E.E.E.E.E.E.",
"E.E.E.E.E.E.E.E.E.E.E.  * Z F.G.G.I.j.9 +       E.E.E.E.E.E.E.E.",
"E.E.E.E.E.E.E.E.E.  o & & 3 x.n.n.m.O.& & &       E.E.E.E.E.E.E.",
"E.E.E.E.E.E.E.E.E.  x ,.1.1.d.d.d.r.w.1.<. .&       E.E.E.E.E.E.",
"E.E.E.E.E.E.E.  o 2 _ q.q.q.0.0.q.0.0.q.0.2.n %   E.  E.E.E.E.E.",
"E.E.E.E.E.E.    l -.8.:.9.9.9.9.8.8.9.9.2.:.:.] %       E.E.E.E.",
"E.E.E.E.E.E.  b { 6.5.%.:.5.6.5.6.6.6.6.%.=.6.=.! 5       E.E.E.",
"E.E.E.E.E.E.  Q 7.5.$.` &.;.;.;.4.3.4.4.$.^ *.;.7.z       E.E.E.",
"E.E.E.E.E.E.  W 3.#.m 5 @.*.#.*.*.*.*.*.R 5 ^ *.3.z       E.E.E.",
"E.E.E.E.E.E.  ) y.e.v % / ' _ [ | ~ E T k & +.t.t.c       E.E.E.",
"E.E.E.E.E.E.  f.T.K.A o ....~ p.s.N 6 2   + j.I.U.Z       E.E.E.",
"E.E.E.E.E.E.  g.l.J > O C H C J K B t q # O M P L.A       E.E.E.",
"E.E.E.E.E.E.  f.o.  . X I Y I D g I I j 1     8 b.V       E.E.E.",
"E.E.E.E.E.E.  4 ;     X D G g , . a U h 1     O = O       E.E.E.",
"E.E.E.E.E.E.E.        X D G g :   p Y h 1                 E.E.E.",
"E.E.E.E.E.E.          X D G g :   p U h 1                 E.E.E.",
"E.E.E.E.E.E.E.      E.X D G g :   p U D 1       E.        E.E.E.",
"E.E.E.E.E.E.E.E.E.E.E.X D G g :   p Y h 1       E.E.E.E.E.E.E.E.",
"E.E.E.E.E.E.E.E.E.E.E.X G I h :   p Y j 1       E.E.E.E.E.E.E.E.",
"E.E.E.E.E.E.E.E.E.    X a d a :   i f a <       E.  E.E.E.E.E.E.",
"E.E.E.E.E.E.E.E.E.O u B e - #     w e - X           E.E.E.E.E.E.",
"E.E.E.E.E.E.E.E.E.  r u ; +       ; ; .             E.E.E.E.E.E.",
"E.E.E.E.E.E.E.E.E.                                  E.E.E.E.E.E.",
"E.E.E.E.E.E.E.E.E.                                  E.E.E.E.E.E.",
"E.E.E.E.E.E.E.E.E.                                  E.E.E.E.E.E."
};
