/* XPM */
static char *gnomine[] = {
/* columns rows colors chars-per-pixel */
"32 32 191 2",
"   c #000000",
".  c #090602",
"X  c #0D0802",
"o  c #0E0808",
"O  c #130D00",
"+  c #130C0A",
"@  c #171000",
"#  c #1C1400",
"$  c #1A110F",
"%  c #1C1210",
"&  c #231900",
"*  c #231613",
"=  c #291613",
"-  c #291A17",
";  c #2E1C19",
":  c #331E1A",
">  c #362700",
",  c #3B2B00",
"<  c #322613",
"1  c #35221D",
"2  c #3A201B",
"3  c #3D2621",
"4  c #3F2C25",
"5  c #3E2E29",
"6  c #483400",
"7  c #4E3801",
"8  c #543D02",
"9  c #50351D",
"0  c #422A25",
"q  c #462D28",
"w  c #492D27",
"e  c #4A2E28",
"r  c #41312B",
"t  c #4C3425",
"y  c #4E302A",
"u  c #522C26",
"i  c #54332C",
"p  c #5B352E",
"a  c #5A3E22",
"s  c #5D3A33",
"d  c #603730",
"f  c #633931",
"g  c #6C3D35",
"h  c #604501",
"j  c #6A4C01",
"k  c #735301",
"l  c #785701",
"z  c #7C5902",
"x  c #614038",
"c  c #6D433B",
"v  c #724137",
"b  c #754239",
"n  c #7B453C",
"m  c #794B36",
"M  c #755225",
"N  c #7E5B2D",
"B  c #694B44",
"V  c #7B4A42",
"C  c #74544B",
"Z  c #7A584F",
"A  c #815D02",
"S  c #865D16",
"D  c #8C543F",
"F  c #905D33",
"G  c #83610C",
"H  c #896301",
"J  c #916802",
"K  c #9E7203",
"L  c #9D6434",
"P  c #9E603D",
"I  c #95772D",
"U  c #A27502",
"Y  c #A77802",
"T  c #AE7D02",
"R  c #B07F03",
"E  c #A0613D",
"W  c #AE6F3D",
"Q  c #A77026",
"!  c #844D42",
"~  c #8B4E44",
"^  c #8C5145",
"/  c #865D53",
"(  c #904F44",
")  c #925345",
"_  c #965549",
"`  c #9D5847",
"'  c #9D5B4E",
"]  c #A1574A",
"[  c #A45E51",
"{  c #A85E51",
"}  c #A06346",
"|  c #A76357",
" . c #A86153",
".. c #AF6559",
"X. c #B1665A",
"o. c #B4695C",
"O. c #B86A5E",
"+. c #B07A5C",
"@. c #A96E60",
"#. c #A27164",
"$. c #A67F73",
"%. c #BD6E60",
"&. c #B57062",
"*. c #BF7164",
"=. c #B47E70",
"-. c #C47466",
";. c #C67668",
":. c #C67D6E",
">. c #C97769",
",. c #CD7A6B",
"<. c #D07E6D",
"1. c #BE8903",
"2. c #B58A1D",
"3. c #A8883A",
"4. c #C08A03",
"5. c #CA9203",
"6. c #C29119",
"7. c #CE9B18",
"8. c #D79B03",
"9. c #DC9E02",
"0. c #D29B10",
"q. c #C4852D",
"w. c #C6932C",
"e. c #CD973A",
"r. c #DFA103",
"t. c #DCA20F",
"y. c #CBA035",
"u. c #D2A636",
"i. c #E2A303",
"p. c #E1A40C",
"a. c #ECAA03",
"s. c #EBA80B",
"d. c #EDAF1D",
"f. c #ECB21E",
"g. c #F2AF03",
"h. c #F5B104",
"j. c #F4B20D",
"k. c #FBB504",
"l. c #F4B412",
"z. c #F4B71C",
"x. c #E2B43F",
"c. c #E8B636",
"v. c #EAB838",
"b. c #F5B923",
"n. c #F5BC2B",
"m. c #F4BF36",
"M. c #F2BF3F",
"N. c #C68576",
"B. c #CE8071",
"V. c #D58474",
"C. c #D58B7A",
"Z. c #D98776",
"A. c #DA8877",
"S. c #DB8F7D",
"D. c #DE917F",
"F. c #CDAB55",
"G. c #E6B843",
"H. c #F6C037",
"J. c #F6C13B",
"K. c #EEC45B",
"L. c #F1C24C",
"P. c #F1C75B",
"I. c #EAC871",
"U. c #F7CE67",
"Y. c #F7CF6A",
"T. c #F8CE64",
"R. c #F8CF69",
"E. c #F4D075",
"W. c #F0D07F",
"Q. c #F8D477",
"!. c #C48F80",
"~. c #C79283",
"^. c #CE9687",
"/. c #DC9584",
"(. c #DE9C8C",
"). c #DFA492",
"_. c #E49482",
"`. c #E49C8B",
"'. c #E99D8B",
"]. c #E7A291",
"[. c #ECA694",
"{. c #F2A390",
"}. c #F1D58E",
"|. c #F8D680",
" X c #F9E1A4",
".X c #F9E6B5",
"XX c #FBE8B6",
"oX c #FBE8B8",
"OX c #FCEFCE",
"+X c #FDF8EA",
"@X c None",
/* pixels */
"@X@X@X@X@X@X@X@X@X@X@X@X@X@X@X@X@X@X@X@X@X@X@X@X@X@X@X@X@X@X@X@X",
"@X@X@X@X@X@X@X@X@X@X@X@X@X@X@X@X@X@X@X@X@X@X@X@X@X@X@X@X@X@X@X@X",
"@X@X@X@X@X@X@X@X@X@X@X@X@X@X@X@X@X@X@X@X@X@X@X@X@X@X@X@X@X@X@X@X",
"@X@X@X@X@X@X@X@X@X@X@X@X@X@X@X@X@X@X@X@X@X@X@X@X@X@X          @X",
"@X@X@X@X@X@X@X@X@X@X@X@X@X@X@X@X@X@X@X@X@X@X@X@X% e -           ",
"@X@X@X@X@X@X@X@X@X@X@X@X@X@X@X@X@X@X@X@X@X@X+ x @.B.| p .       ",
"@X@X@X@X@X@X@X@X@X@X@X@X@X@X@X@X@X@X@X@X@X0 N.C.B.-.O.{ =       ",
"@X@X@X@X@X@X@X@X@X@X@X@X@X@X@X@X@X@X@X% / N._.V.*.O.[ _ u       ",
"@X@X@X@X@X@X@X@X@X@X@X@X@X@X@X@X@X@X% #.`._.Z.>...' ~ b :       ",
"@X@X@X@X@X@X@X@X@X@X@X@X@X@X@X@X. B =./.S.A.>.O._ ! g i +       ",
"@X@X@X@X@X@X@X@X@X@X@X@X@X@X@X  Z ].'.A.V.,.&.' ! g i : .       ",
"@X@X@X@X@X  O . @X@X@X@X@X@X+ C [.'.D.V.>.%._ D f i 3 o         ",
"@X@X@X@X@XO 5.7 @X@X@X@X@Xr !.].{._.V.,.%.{ ! g i 0 +           ",
"@X@X@X@X@Xk g.T @X@X@X@Xr ^.].'.`.Z.-.-. .! g p w *             ",
"@X@X@X@X@XU k.i.@X@X@X5 ^.`././.V.>.X.{ ~ v p e *               ",
"@X@X@X@X@XK k.9.@X@Xr ~.(./.S.V.>.o.[ ~ b f y =                 ",
"@X@X@X@X@XK k.8.< $.].(./._.V.-.O.[ ( b f y ; .                 ",
"@ . @X& J 8.h.s.+.:.&.o.-.,.-.X.{ ) n p y ; .                   ",
"9.A z i.k.h.g.s.} ^ ^ ! ` ] { { ) n d e 3 .                     ",
"a.h.h.h.g.h.h.s.P ^ ^ D ) ~ ) ( n f e 3 o                       ",
"j h.g.h.l.z.l.f.W P L F ! ! ^ V d i 3 +                         ",
"1.h.h.j.b.J.J.J.e.q.Q a i V ! V i 0 +                         @X",
"h.h.l.b.J.Y.Q.Q.L.w.M t r c ! b q %                         @X@X",
"h.g.z.J.T. XOXXXI.3.N m i s V s - .                       @X@X@X",
"g.h.z.G.E.oX+XOXW.x.6.S 9 1 - o                           @X@X@X",
"h.h.7.I F.}.oX XE.v.0.R l > O .                           @X@X@X",
"1.h.t.2.u.K.U.Y.P.y.G 8 7 6 , & O .                     @X@X@X@X",
"8 g.h.l.b.m.m.m.c.2.8 @   . . X X                     @X@X@X@X@X",
". l g.h.j.l.j.l.t.K , .                           @X@X@X@X@X@X@X",
"@X  z i.h.h.g.h.a.H @                           @X@X@X@X@X@X@X@X",
"@X@X. & J 8.h.a.Y ,                           @X@X@X@X@X@X@X@X@X",
"@X@X@X@X@X, h 8 @X                          @X@X@X@X@X@X@X@X@X@X"
};
