/* XPM */
static char *gnotravex[] = {
/* columns rows colors chars-per-pixel */
"32 32 97 2",
"   c black",
".  c #010101",
"X  c #020202",
"o  c #030303",
"O  c #040404",
"+  c #050505",
"@  c #060606",
"#  c #0A0A0A",
"$  c #0B0B0B",
"%  c #0C0C0C",
"&  c #0D0D0D",
"*  c #0E0E0E",
"=  c #0F0F0F",
"-  c #111111",
";  c #121212",
":  c #131313",
">  c #141414",
",  c #171717",
"<  c #191919",
"1  c #1B1B1B",
"2  c #252525",
"3  c #262626",
"4  c #2F2F2F",
"5  c #303030",
"6  c #313131",
"7  c #3C3C3C",
"8  c #3D3D3D",
"9  c #404040",
"0  c #414141",
"q  c #454545",
"w  c #464646",
"e  c #515151",
"r  c #525252",
"t  c #585858",
"y  c #595959",
"u  c #5A5A5A",
"i  c #5E5E5E",
"p  c #616161",
"a  c #626262",
"s  c #636363",
"d  c #656565",
"f  c #6D6D6D",
"g  c #717171",
"h  c #727272",
"j  c #737373",
"k  c #787878",
"l  c #7A7A7A",
"z  c #7D7D7D",
"x  c #7E7E7E",
"c  c #7F7F7F",
"v  c #808080",
"b  c #818181",
"n  c #858585",
"m  c #868686",
"M  c #888888",
"N  c #898989",
"B  c #8A8A8A",
"V  c #8B8B8B",
"C  c #8C8C8C",
"Z  c #8D8D8D",
"A  c #8F8F8F",
"S  c #909090",
"D  c #9A9A9A",
"F  c #A4A4A4",
"G  c #A5A5A5",
"H  c #AEAEAE",
"J  c #B1B1B1",
"K  c #BEBEBE",
"L  c #C1C1C1",
"P  c #D0D0D0",
"I  c #D7D7D7",
"U  c #DBDBDB",
"Y  c #DCDCDC",
"T  c #DDDDDD",
"R  c #DEDEDE",
"E  c #E0E0E0",
"W  c #E1E1E1",
"Q  c #E2E2E2",
"!  c #E5E5E5",
"~  c #E6E6E6",
"^  c #E7E7E7",
"/  c #E8E8E8",
"(  c #EAEAEA",
")  c #EBEBEB",
"_  c #EEEEEE",
"`  c #EFEFEF",
"'  c #F0F0F0",
"]  c #F3F3F3",
"[  c #F4F4F4",
"{  c #F5F5F5",
"}  c #F6F6F6",
"|  c #F7F7F7",
" . c #F8F8F8",
".. c #FAFAFA",
"X. c #FCFCFC",
"o. c gray100",
"O. c None",
/* pixels */
"2 p p p p p s s s s s s s s s s s p p s s s s p p s s s s s r - ",
"p o.o.o.! ^ ^ ^ ^ ^ ^ ^ ` ^ ^ ^ ^ ` ^ ^ ^ ^ ^ ` ^ ^ ^ ^ ` ` F 5 ",
"p o.! ] i > < < > < < < > < < > < > < < < > < < < < > < t B x 5 ",
"p ] D Y W q O.O.O.O.O.O.O.O.            O.O.O.O.O.O.  8 x J B 5 ",
"p ` g B Y ! q O.O.O.O.O.O.O.            O.O.O.O.O.  9 c K ` A 4 ",
"p ^ 2 u A Y ! w O.O.O.O.O.              O.O.O.O.+ 8 c K ] A k 4 ",
"s ^ < & u A Y ! q O.O.O.O.              O.O.O.  9 c K ..x - g 5 ",
"s ^ > O.& u S Y W q O.O.O.              O.O.  9 c K ] n   & j 5 ",
"s ^ < O.O.& i A Y ! q O.O.              O.  9 c K ..x + O.& g 5 ",
"s ^ < O.O.O.& u A Y ! q O.              + 8 c K ..c + O.O.& j 5 ",
"p ^ < O.O.O.O.& u A Y ! q O.            9 c K ..x @ O.O.O.& j 5 ",
"s ^ < O.      O.& u S Y ! q O.O.O.O.+ 8 c K ] n         O.& j 6 ",
"s ^ >             & u A Y ! q O.O.+ 9 x K ..x +           & g 5 ",
"s ^ <             O.& u S Y W q   9 x K ..c               & j 5 ",
"s ^ <             O.O.& u A Y W f x K ..x + O.      O.    & j 5 ",
"s ^ <             O.O.O.& u A Y ` U ] c + O.O.            & j 5 ",
"p ^ <             O.O.O.O.- j S ] o.H + O.O.O.            & g 5 ",
"s ^ <             O.O.O.  8 x K ..] W q O.O.O.            & j 5 ",
"s ^ >             O.O.  9 c K ] F S Y ! q O.O.            & j 5 ",
"s ^ <           O.O.+ 9 c K ..c > u A Y W q O.            & j 6 ",
"s ^ < O.O.O.O.O.O.  9 c K ..x + O.& u A Y ! q O.O.O.O.O.O.& g 5 ",
"s ^ < O.O.O.O.O.+ 8 c K ..c         & u S Y ! q O.O.O.O.O.& j 5 ",
"p ^ < O.O.O.O.  9 x K ..x +           & u A Y ! q O.O.O.O.& j 5 ",
"s ^ < O.O.O.+ 8 x K ..c +               & u A Y ! w O.O.O.& j 5 ",
"s ^ < O.O.+ 9 x K ..x + O.              O.& u A Y ! q O.O.@ j 6 ",
"s ^ < O.  8 x K ..c   O.O.O.O.        O.O.O.& u S Y W q O.& j 6 ",
"s ^ <   8 x K ..x + O.O.O.O.O.        O.O.O.O.& u A U ! q @ j 6 ",
"s ^ 1 8 x K ..c + O.O.O.O.O.O.      O.O.O.O.O.O.& i A Y ! t j 6 ",
"s ^ t x K ..x + O.O.O.O.O.O.        O.O.O.O.O.O.O.& u A Y ! B 4 ",
"p ] B J ] A & @ & & & & & & & & @ & & & & & & & & @ < s A P A 4 ",
"s Y n B A k j j j j j j g j j j j j j j j j j j g j g x x n x 5 ",
"2 9 4 5 5 5 5 5 6 6 5 5 5 5 6 5 5 5 5 5 6 6 5 5 5 5 5 5 5 5 5 - "
};
