/* XPM */
static char *gnotski[] = {
/* columns rows colors chars-per-pixel */
"32 32 234 2",
"   c black",
".  c #010000",
"X  c #010101",
"o  c #010201",
"O  c #060302",
"+  c #040504",
"@  c #050505",
"#  c #0B0101",
"$  c #0B0505",
"%  c #080A07",
"&  c #080808",
"*  c #0A0A0A",
"=  c #0B0B0A",
"-  c #0C0F0B",
";  c #0C0F0C",
":  c #0F0C0C",
">  c #0F0F0F",
",  c #100607",
"<  c #100707",
"1  c #110607",
"2  c #110707",
"3  c #110808",
"4  c #121415",
"5  c #121515",
"6  c #161719",
"7  c #171918",
"8  c #181818",
"9  c #181819",
"0  c #18181A",
"q  c #1A191A",
"w  c #1B1A1B",
"e  c #200C0E",
"r  c #2B1614",
"t  c #2B1714",
"y  c #3C1F1C",
"u  c #222222",
"i  c #2A2C29",
"p  c #2C2B29",
"a  c #283327",
"s  c #393939",
"d  c #393B39",
"f  c #3A3A3A",
"g  c #3C473A",
"h  c #40201C",
"j  c #41211E",
"k  c #42211D",
"l  c #42211E",
"z  c #42221E",
"x  c #42221F",
"c  c #44231F",
"v  c #442724",
"b  c #43302C",
"n  c #733F36",
"m  c #505050",
"M  c #525453",
"N  c #575651",
"B  c #545655",
"V  c #565656",
"C  c #585859",
"Z  c #5B5B5B",
"A  c #5E5F5D",
"S  c #4C614A",
"D  c #615B5D",
"F  c #6C6C6B",
"G  c #667B64",
"H  c #7E807E",
"J  c #749570",
"K  c #789975",
"L  c #814A3D",
"P  c #814C3B",
"I  c #824C3C",
"U  c #824C3D",
"Y  c #824D3D",
"T  c #824C3E",
"R  c #824D3E",
"E  c #855347",
"W  c #855648",
"Q  c #895A4B",
"!  c #995746",
"~  c #807F78",
"^  c #A4614E",
"/  c #BA765A",
"(  c #BE815B",
")  c #BE825E",
"_  c #BE835E",
"`  c #BF825E",
"'  c #BF835E",
"]  c #BE845F",
"[  c #BF845E",
"{  c #C1815F",
"}  c #C0835F",
"|  c #C0855F",
" . c #C38F6D",
".. c #C48F6D",
"X. c #CE8662",
"o. c #D29062",
"O. c #D29166",
"+. c #C7A07C",
"@. c #D9A26B",
"#. c #DAA66F",
"$. c #DFAE70",
"%. c #DEB27A",
"&. c #DEB37D",
"*. c #E1AB73",
"=. c #E0AF73",
"-. c #E0B073",
";. c #E0B373",
":. c #E1B174",
">. c #E8C97A",
",. c #E8CD7F",
"<. c #EECD7D",
"1. c #EECD7E",
"2. c #EFCF7F",
"3. c #EFD07F",
"4. c #EDD57C",
"5. c #EDD57D",
"6. c #EDD57E",
"7. c #EDD57F",
"8. c #EED57D",
"9. c #EED77D",
"0. c #EED67F",
"q. c #EED77E",
"w. c #EFD67E",
"e. c #99978F",
"r. c #929392",
"t. c #9A9E9A",
"y. c #9B9E9A",
"u. c #9FA19E",
"i. c #93B48F",
"p. c #98B894",
"a. c #A3A399",
"s. c #A5A299",
"d. c #A5A399",
"f. c #A4A29A",
"g. c #A5A29A",
"h. c #A5A39C",
"j. c #A5A49A",
"k. c #A5A49B",
"l. c #A5A59B",
"z. c #A6A59B",
"x. c #A5A49C",
"c. c #A8A59C",
"v. c #A8A69F",
"b. c #A9A79F",
"n. c #B1A090",
"m. c #B2A191",
"M. c #B0A59A",
"N. c #A8A7A1",
"B. c #A4B9A2",
"V. c #B2BDB1",
"C. c #BED3BB",
"Z. c #D6AE84",
"A. c #D2BC92",
"S. c #D8B290",
"D. c #E5B682",
"F. c #E5B683",
"G. c #E7B882",
"H. c #E6B984",
"J. c #E7B985",
"K. c #E6BB84",
"L. c #E7BA85",
"P. c #E7BB85",
"I. c #E5BB88",
"U. c #E9B685",
"Y. c #C4C3BA",
"T. c #DACFA7",
"R. c #E3C38F",
"E. c #EBC689",
"W. c #ECCD80",
"Q. c #EECF82",
"!. c #E5C591",
"~. c #E2C59B",
"^. c #E2C69C",
"/. c #E6CF91",
"(. c #E7D38B",
"). c #EED680",
"_. c #EFD680",
"`. c #EFD780",
"'. c #EED880",
"]. c #EFD880",
"[. c #EFD980",
"{. c #EFD981",
"}. c #EDD98C",
"|. c #E6D792",
" X c #E7D09A",
".X c #E8D19B",
"XX c #E8D29C",
"oX c #ECDC9E",
"OX c #EFDD9F",
"+X c #F0D28D",
"@X c #F0D880",
"#X c #F0DA81",
"$X c #F0DB8E",
"%X c #F1DC8E",
"&X c #F5D890",
"*X c #F4DC90",
"=X c #F5DF91",
"-X c #F0DF9A",
";X c #F6DB9D",
":X c #E6C8A0",
">X c #EBD6A4",
",X c #EDD1AD",
"<X c #ECDFA6",
"1X c #EFDDA9",
"2X c #E6D6B6",
"3X c #E1D8BA",
"4X c #E1D8BB",
"5X c #E1D9BB",
"6X c #E2DABB",
"7X c #E2DABC",
"8X c #E3DBBC",
"9X c #F3DAA7",
"0X c #F2DBAA",
"qX c #F3DDAC",
"wX c #F4DCAB",
"eX c #F5E091",
"rX c #F6E192",
"tX c #F6E292",
"yX c #F4E094",
"uX c #EBE1BB",
"iX c #F3E4AD",
"pX c #F4E3A8",
"aX c #F4E5AD",
"sX c #F6E6AE",
"dX c #F6E7AE",
"fX c #F6E8AF",
"gX c #FCE8A1",
"hX c #F6EBB8",
"jX c #C6D1C4",
"kX c #E5DFCC",
"lX c #FAF0CC",
"zX c #FAF2CC",
"xX c #FBF4D8",
"cX c None",
/* pixels */
"cXcXcXcXcXcXcXcXcXcXcXcXcXcXcXcXcXcXcXcXcXcXcXcXcXcXcXcXcXcXcXcX",
"cXcXcXcXcX  & 9 0 0 9 9 0 9 0 7 0 0 0 0 6 4 +     cXcXcXcXcXcXcX",
"cXcXcXcXcX  m kX3X5X5X5X5X4X4X5X5X5X8X5X5Xn.3       cXcXcXcXcXcX",
"cXcXcXcXcX  C dX5.0.{.#.X.) ] ] ] ) ) X.X.^ 3     cXcXcXcXcXcXcX",
"cXcX        C sX5.0.].` 3 1 1 1 & < < < < <                 cX  ",
"cXcX  F b.a.Y.pXq.].{.' 3                     F N.a.h.a.N       ",
"cXcX  l.;XD.R.(.;.:.:./ 3 O   d Z V u         h.gX=XeX$XW       ",
"cXcX  l.D.o.^.>X! j c y #     u.C.B.i     cX  h.=Xw.].1.R       ",
"cXcX  k.R.^.zXwXP             y.i.J ;     cX  a.=X_.{.2.R       ",
"cXcX  a.OX<XdX+XP             A g a @     cX  ~ ..` } { n       ",
"cXcX  a.eX5.5.1.R             @           cX  = 3 1 1 1 $       ",
"cXcX  h.eX5.0.1.R       cXcXcX              cX                  ",
"cXcX  a.=X_.0.1.R       cXcXcX            cX                    ",
"cXcX  k.E.O.Z./.R       cXcXcXcXcXcXcXcXcXcXcXcXcXcXcXcXcX      ",
"cXcX  k.F.@.0X0XP       cXcXcX                              cX  ",
"cXcX  k..X2XxX9XP       cXcXcX  d b.z.z.z.z.z.d.d.h.a.a.N       ",
"cXcX  h.=X}.$XW.R       cXcXcX  V ,XG.J.J.J.J..X=X=X=X$XE       ",
"cXcX  a.=X0._.1.R       cXcXcX  9 b j j c c h M.$X0.0.1.R       ",
"cXcX  h.=X0.0.1.R       cXcXcX                h.eX0.0.1.R       ",
"cXcX  h.=X>.,.W.R       cXcXcX> w 9 =         a.eX0.0.1.R       ",
"cXcX  l.P.X.S.XXR       cXcXcXr.jXV.d     cX  a.=X0.5.1.R       ",
"cXcX  k.I.&.hXqXQ 6 9 5 +   cXy.p.K ;     cX  a.=X0.0.2.R       ",
"cXcX  a.oXuXlXOXT.5X5Xm.3     H G S &     cX  k.=X0._.2.R       ",
"cXcX  ~ ..( +.|.w._.{.} 1     9 @         cX  k.=X7._.Q.R       ",
"cXcX  = 3 # D sX5.0.{.` <                 cX  a.=X7.5.1.R       ",
"cXcXcX      C dX5.].{.A.z.l.l.l.z.l.N     cX  a.=X0.{.2.R       ",
"cXcX        M :X$.=.:.:.J.J.J.J.J.U.E         e.J.:.:.*.L       ",
"cXcXcX  cX  7 b h j v j j c j c c v t         p v j j v t       ",
"cXcXcXcXcX                                                      ",
"cXcXcXcXcXcX                                cX                  ",
"cXcXcXcXcXcX                                cX                  ",
"cXcXcXcXcXcXcXcXcXcXcXcXcXcXcXcXcXcXcXcXcXcXcXcXcXcXcXcXcXcXcXcX"
};
