/* XPM */
static char *gsame[] = {
/* columns rows colors chars-per-pixel */
"32 32 257 2",
"   c #000000",
".  c #04090E",
"X  c #0B0B0B",
"o  c #0B0704",
"O  c #0A0D10",
"+  c #0F1215",
"@  c #120E0A",
"#  c #110C07",
"$  c #19130E",
"%  c #131312",
"&  c #141719",
"*  c #1C1711",
"=  c #1F1813",
"-  c #1B1B1B",
";  c #17212A",
":  c #1B242D",
">  c #16283B",
",  c #182739",
"<  c #192734",
"1  c #221B14",
"2  c #22221F",
"3  c #34281E",
"4  c #39271C",
"5  c #382A1E",
"6  c #232323",
"7  c #23262A",
"8  c #2B2B2B",
"9  c #252C36",
"0  c #2E302D",
"q  c #2A323A",
"w  c #362C24",
"e  c #39322A",
"r  c #353432",
"t  c #373738",
"y  c #37393A",
"u  c #383937",
"i  c #393A39",
"p  c #1F3546",
"a  c #1F3A4D",
"s  c #1F3C55",
"d  c #1F3E5C",
"f  c #1E3F67",
"g  c #243947",
"h  c #233C4E",
"j  c #2A3F4E",
"k  c #233D53",
"l  c #323E46",
"z  c #203F65",
"x  c #24435D",
"c  c #36464C",
"v  c #3F4342",
"b  c #3C4D58",
"n  c #25486F",
"m  c #334D62",
"M  c #3B5067",
"N  c #395676",
"B  c #3D5A79",
"V  c #483327",
"C  c #493B2E",
"Z  c #443429",
"A  c #453F39",
"S  c #4F3E30",
"D  c #503F2D",
"F  c #5D3D2A",
"G  c #563624",
"H  c #4F4236",
"J  c #4C473F",
"K  c #554332",
"L  c #50493F",
"P  c #5D4734",
"I  c #5E4A37",
"U  c #5A4B3F",
"Y  c #6A422B",
"T  c #664B37",
"R  c #6A503B",
"E  c #72422A",
"W  c #7F4F32",
"Q  c #73543C",
"!  c #7B5438",
"~  c #78593F",
"^  c #4C4E4D",
"/  c #434443",
"(  c #564D43",
")  c #59594B",
"_  c #525453",
"`  c #595B59",
"'  c #505D5C",
"]  c #465861",
"[  c #415A76",
"{  c #5F615F",
"}  c #54676F",
"|  c #576A6F",
" . c #665342",
".. c #6B5743",
"X. c #605B56",
"o. c #7A5B42",
"O. c #676C5E",
"+. c #7A624A",
"@. c #706D55",
"#. c #72685F",
"$. c #646464",
"%. c #6C6C6C",
"&. c #697378",
"*. c #74766D",
"=. c #747474",
"-. c #7B7B7B",
";. c #7D7873",
":. c #2D5886",
">. c #2C5581",
",. c #335D86",
"<. c #34618F",
"1. c #3B6A9B",
"2. c #4C6C8B",
"3. c #456E96",
"4. c #5C768E",
"5. c #4577AB",
"6. c #4B7AA6",
"7. c #4C82B7",
"8. c #5F82A3",
"9. c #5485B2",
"0. c #768F89",
"q. c #6391B6",
"w. c #7594A3",
"e. c #7BA2C2",
"r. c #8B5837",
"t. c #855C3D",
"y. c #955F3E",
"u. c #9C5B35",
"i. c #AD673B",
"p. c #BD733F",
"a. c #B46939",
"s. c #805F41",
"d. c #86694A",
"f. c #8E6A48",
"g. c #866246",
"h. c #8D6F51",
"j. c #816B52",
"k. c #956C4A",
"l. c #996947",
"z. c #916341",
"x. c #9C754F",
"c. c #95714D",
"v. c #937656",
"b. c #857663",
"n. c #A76A43",
"m. c #A87147",
"M. c #AD7A4F",
"N. c #A2744D",
"B. c #A77F5B",
"V. c #A67B55",
"C. c #B87A49",
"Z. c #C0733D",
"A. c #C77E44",
"S. c #858971",
"D. c #86937F",
"F. c #95906A",
"G. c #9E9778",
"H. c #989473",
"J. c #AD8C5F",
"K. c #B78A55",
"L. c #BD8756",
"P. c #BB8D5E",
"I. c #B88459",
"U. c #AC9170",
"Y. c #BA8F65",
"T. c #B59066",
"R. c #B8946C",
"E. c #B59369",
"W. c #BA9E78",
"Q. c #ADA26F",
"!. c #A8A57C",
"~. c #CE8B4F",
"^. c #C68E59",
"/. c #CA8B53",
"(. c #CC965E",
"). c #D59552",
"_. c #CA9965",
"`. c #C2996D",
"'. c #D09D69",
"]. c #C4A174",
"[. c #CAA376",
"{. c #CBA779",
"}. c #DAA56D",
"|. c #D3A474",
" X c #D5AD7B",
".X c #DFB06D",
"XX c #E7B775",
"oX c #848382",
"OX c #888786",
"+X c #888887",
"@X c #8B8B8A",
"#X c #859581",
"$X c #859593",
"%X c #90908F",
"&X c #989D8A",
"*X c #939392",
"=X c #989997",
"-X c #9D9D9C",
";X c #8AA29D",
":X c #89A7AD",
">X c #96A5A2",
",X c #91ADB6",
"<X c #A1A09F",
"1X c #A3AB9D",
"2X c #ACB68C",
"3X c #B5A982",
"4X c #AEAD87",
"5X c #A7A8A6",
"6X c #AEAEAC",
"7X c #ABC1A7",
"8X c #BCCEA3",
"9X c #B4C2B7",
"0X c #BDCBC5",
"qX c #C4A882",
"wX c #C2AE93",
"eX c #C2B385",
"rX c #C0B890",
"tX c #CFB690",
"yX c #DAAF83",
"uX c #DEB685",
"iX c #DDBA89",
"pX c #E1BA87",
"aX c #E1BB8C",
"sX c #C9C18E",
"dX c #D2C493",
"fX c #D1CF9F",
"gX c #D8CB96",
"hX c #D3CC94",
"jX c #DED09F",
"kX c #CACEB6",
"lX c #DEC8A3",
"zX c #D8D4A3",
"xX c #E6C08D",
"cX c #E9C28E",
"vX c #E6C69D",
"bX c #EBC393",
"nX c #ECC79C",
"mX c #EECB9C",
"MX c #EDC894",
"NX c #F3D099",
"BX c #E6CCA0",
"VX c #EBD2A8",
"CX c #E8D6B4",
"ZX c #E9D6B8",
"AX c #F4DDB3",
"SX c #F6E0B5",
"DX c #DEE4CC",
"FX c #DDE5D7",
"GX c #E7E9C2",
"HX c #EFE0C1",
"JX c #E8E9C3",
"KX c #F5E6C9",
"LX c #F9EACC",
"PX c #F5F6D3",
"IX c #FFFDD6",
"UX c #FBFADB",
"YX c None",
/* pixels */
"YXYXYXYXYXYXYXYXYXYXYXYXYXYXYXYXYXYXYXYXYXYXYXYXYXYXYXYXYXYXYXYX",
"YXYXYXYXYXYXYXYXYXYXYXYXYXYXYXYXYXYXYX        YXYXYXYXYXYXYXYXYX",
"YXYXYXYXYX7 q < 0 y YXYXYXYXYXYXYX                YXYXYXYXYXYXYX",
"YXYXYX+ [ 8.w.0.D.D.O.0       YX                            YXYX",
"YXYX+ 2.e.0X9X>X&X4X!.H.6                                     YX",
"YXYX4.e.FXUXPXDXkXzXsXQ.)         # @ @ # o                     ",
"YXO 6.,XGXPXUXIXSXfXhXF.@.2   2 ..R.].].P.k.K %                 ",
"YX. 1.q.:X7X8XzXjXrX&X{ ) 2 3 U.vXmXmXaXpXyX[.c.4               ",
"YX. 1.7.9.;X2X2XeX3X| x c w h.{.aXcXbXnXaXuX|._.x.5             ",
"YX. <.5.6.>XdXeXU.| x a x J d.J. XcXNXNXmXbXuX|.P.f.1           ",
"YX. >.1.3.1XgX!.*.m k a h J  .v.qXVXSXSXAXVXBXiX{.T.I           ",
"YXYXN :.,.$XdXS.] b k a l J ( b.wXZXLXLXKXHXCXBXtXW.j.$         ",
"YXYX9 N n B &.M x x h g r e K +.E.uXMXmXvXpX X[.Y.V.o.*         ",
"YXYX% q k z z z s s p : 3 e K o.K..XXXXXXX}.'.L.M.k.Q 1         ",
"YXYX    O : , > < ; & % 3 V Y r.C.~.).~./.(.L.n.z.! P $         ",
"YXYX              X X % 5 G Y u.Z.~.Z.a.i.n.y.W Y F V @         ",
"YXYXYX            . X X 5 ! l.I.(._.^.C.n.y.t.Q T K w o         ",
"YXYXYX              o . 1 d.E.[.{.].T.J.k.~ R P C C 1           ",
"YXYXYX            o o o   5 k.V.N.k.g.Q  .#.;.;.X.0 .           ",
"YXYXYXYXYX                  w o.g.~ T U oX6X6X-Xb.^ X           ",
"YXYXYXYXYX  2 0 6 o           * e C Z *.5X*X*XoX=.$.8           ",
"YXYXYXYXo / @X-X-.y o           o @ 8 OX<X+XoX=.%.` y o         ",
"YXYXYXYX- +X=X+X=.` &             o 8 OX<X*X-.%.$.` v +         ",
"YXYXYXYX8 @X*X-.$._ 6             . ; %.+X*X-.X._ ^ y X         ",
"YXYXYXYX& %.oX%._ / -           o X & ^ =.-.%.` ^ / 8 .         ",
"YXYXYXYXX u _ _ / 8 X           X % % 8 ^ ` _ ^ / u %           ",
"YXYXYXYXYXX - 6 & o             o O % & - r i t 8 %             ",
"YXYXYXYXYXYX                      YX  YX  . % X                 ",
"YXYXYXYXYXYX                      YXYXYX                        ",
"YXYXYXYXYXYX                      YXYXYXYX                      ",
"YXYXYXYXYXYXYX                    YXYXYXYXYX                    ",
"YXYXYXYXYXYXYXYXYXYX              YXYXYXYXYXYXYXYX            YX"
};
