/* XPM */
static char *gtali[] = {
/* columns rows colors chars-per-pixel */
"32 32 246 2",
"   c #000000",
".  c #0C0604",
"X  c #0A0B0B",
"o  c #0F100F",
"O  c #0F1110",
"+  c #100705",
"@  c #130907",
"#  c #140B09",
"$  c #180A07",
"%  c #1C0D0A",
"&  c #121412",
"*  c #1A1311",
"=  c #1B1C1B",
"-  c #1F2220",
";  c #220F0C",
":  c #25120E",
">  c #29120E",
",  c #221410",
"<  c #221815",
"1  c #211C18",
"2  c #2B1512",
"3  c #2A1813",
"4  c #2C1E1B",
"5  c #321712",
"6  c #351915",
"7  c #351A18",
"8  c #3B1B16",
"9  c #3B1D1A",
"0  c #34251F",
"q  c #3D221C",
"w  c #222522",
"e  c #282723",
"r  c #282B29",
"t  c #2F322F",
"y  c #372F2A",
"u  c #3A2925",
"i  c #33332E",
"p  c #3C332C",
"a  c #303431",
"s  c #363934",
"d  c #3D3731",
"f  c #3B3B35",
"g  c #3E403C",
"h  c #411D16",
"j  c #431E1A",
"k  c #45221E",
"l  c #4A221C",
"z  c #52261D",
"x  c #472722",
"c  c #412924",
"v  c #4D2421",
"b  c #4D2923",
"n  c #43312B",
"m  c #48312A",
"M  c #413730",
"N  c #413C35",
"B  c #4B3C34",
"V  c #532523",
"C  c #55232A",
"Z  c #522923",
"A  c #5B262C",
"S  c #5B2A24",
"D  c #5D2A2A",
"F  c #55352F",
"G  c #5C322C",
"H  c #573731",
"J  c #543B33",
"K  c #5B3B34",
"L  c #60272D",
"P  c #632D26",
"I  c #642B2D",
"U  c #692D2E",
"Y  c #662930",
"T  c #6B2C31",
"R  c #63342E",
"E  c #6C3027",
"W  c #6C342E",
"Q  c #6E3031",
"!  c #6A3B32",
"~  c #702E32",
"^  c #71382F",
"/  c #78362F",
"(  c #7B392F",
")  c #753432",
"_  c #733B33",
"`  c #7A3633",
"'  c #7C3A32",
"]  c #674037",
"[  c #6D413B",
"{  c #714137",
"}  c #7A4238",
"|  c #78483F",
" . c #454746",
".. c #464847",
"X. c #4F514E",
"o. c #595C5A",
"O. c #734941",
"+. c #7B4E45",
"@. c #775B41",
"#. c #7E6446",
"$. c #833C36",
"%. c #8A3E34",
"&. c #893E38",
"*. c #903F37",
"=. c #84423C",
"-. c #83493D",
";. c #8C4036",
":. c #8C433A",
">. c #8F493F",
",. c #81583F",
"<. c #914236",
"1. c #93433A",
"2. c #9C463B",
"3. c #98483F",
"4. c #A1463B",
"5. c #A24A3E",
"6. c #AA493E",
"7. c #8D4640",
"8. c #835B45",
"9. c #89544C",
"0. c #934B43",
"q. c #9B4A40",
"w. c #9A554A",
"e. c #985848",
"r. c #935B52",
"t. c #9E5B53",
"y. c #816C4D",
"u. c #8E634C",
"i. c #8C6F4F",
"p. c #857853",
"a. c #92625B",
"s. c #9C7759",
"d. c #A24E44",
"f. c #A64E48",
"g. c #AA4C42",
"h. c #A35144",
"j. c #A3564C",
"k. c #A25B4D",
"l. c #AB5044",
"z. c #AE544A",
"x. c #AF5847",
"c. c #A8584B",
"v. c #A85B51",
"b. c #B35145",
"n. c #B15449",
"m. c #B35C4C",
"M. c #B95549",
"N. c #B95C4E",
"B. c #BB5F51",
"V. c #A5604C",
"C. c #A26553",
"Z. c #A36B55",
"A. c #A36C59",
"S. c #A96655",
"D. c #A96B5D",
"F. c #BB614E",
"G. c #B26253",
"H. c #B36855",
"J. c #B76E5E",
"K. c #BF6352",
"L. c #BD6659",
"P. c #BB6E5C",
"I. c #B5725D",
"U. c #B9755D",
"Y. c #A77269",
"T. c #A77F65",
"R. c #B26D63",
"E. c #B07460",
"W. c #B5766B",
"Q. c #B7796E",
"!. c #BB7060",
"~. c #BB766B",
"^. c #B17D74",
"/. c #BA7C73",
"(. c #C05E4F",
"). c #C36453",
"_. c #C46B57",
"`. c #C56B5A",
"'. c #C86857",
"]. c #CA6E5C",
"[. c #CF705E",
"{. c #C57363",
"}. c #C37769",
"|. c #C07C66",
" X c #CD7562",
".X c #C87768",
"XX c #CA7A67",
"oX c #CD7D6B",
"OX c #CC7F73",
"+X c #D27663",
"@X c #D47A66",
"#X c #D57C6B",
"$X c #D97E6D",
"%X c #D87F70",
"&X c #9B8760",
"*X c #AB8A66",
"=X c #A1946D",
"-X c #A79971",
";X c #AF9775",
":X c #B98164",
">X c #BE8C6D",
",X c #BA857D",
"<X c #BC8970",
"1X c #CC846E",
"2X c #C5847A",
"3X c #CE8272",
"4X c #CC897E",
"5X c #CB9476",
"6X c #CE9A79",
"7X c #D5816D",
"8X c #D9816E",
"9X c #D58372",
"0X c #D78E76",
"qX c #D4897C",
"wX c #DA8371",
"eX c #DC8D7A",
"rX c #D59C7D",
"tX c #DE917C",
"yX c #E08D78",
"uX c #AFB4AD",
"iX c #B2B7B4",
"pX c #C48B82",
"aX c #C4948C",
"sX c #C69E81",
"dX c #CF988F",
"fX c #C79A92",
"gX c #C89C94",
"hX c #D49184",
"jX c #D4968A",
"kX c #D89488",
"lX c #C1AC86",
"zX c #CDB38C",
"xX c #D6A186",
"cX c #D1AD8D",
"vX c #D9A389",
"bX c #D0A39B",
"nX c #DAA49C",
"mX c #D7B18C",
"MX c #DCB693",
"NX c #CFADA7",
"BX c #D3A9A1",
"VX c #D5AEA8",
"CX c #D4B3AE",
"ZX c #E19D83",
"AX c #E0AC8E",
"SX c None",
/* pixels */
"SXSXSXSXSX    . 3 k q 7 : +   SXSXSXSXSXSXSXSXSXSXSXSXSXSXSXSXSX",
"SXSXSXSX  @ b -.H.{.{.P.c.$.8 .   SXSXSXSXSXSXSXSXSXSXSXSXSXSXSX",
"SXSXSX  * O.L.8XwX$X$XwX8X+Xm.' 6   SXSXSXSXSXSXSXSXSXSXSXSXSXSX",
"SXSXSX. +.{.#X8X%X#X#X%X8X8X@XK.>.7   SXSXSXSXSXSXSXSXSXSXSXSXSX",
"SXSX  c Q.@X8X8X#XJ.5XeX@X$X7X[.j._ + SXSXSXSXSXSXSXSXSXSXSXSXSX",
"SXSX. O.4X+XwXwX#X8.-XxX$X8X7X[.5./ % SXSXSXSXSXSXSXSXSXSXSXSXSX",
"SX .> Y.jX+XwXwXwXJ.A.9X$XwX$X[.<.Z # SXSX          SXSXSXSXSXSX",
"SXiXu ,XbX#X#XwXwXwX$X%XwXwX@XF./ u X   # k { { ! Z 6 .     SXSX",
"SXo.x W.CXBX%X$XwXwXwX%X8X8X].4.R i 1 R j.U.0X8X@X XG.$.8 +   SX",
"SX..x h.R./.2XOX].[.@X@X[.).M.=.n i +.`.U.i.zXtX$X7X1X@Xn.^ %   ",
"SX  > %.&.' &.:.3.g.g.n.b.b.z.[ i O.}.$X{.u.T.3X%XC.&XMX Xz.! $ ",
"SXSX; P ) T T T T ) ' *.4.g.2.J p Y.#X8X%X#XS.*XmXJ.u.<X#Xm.>.7 ",
"SXSX$ l E U U U Y L I T ` 1.;.p K pX@XU.6XtXD.y.6XwX@X$X@XG.( q ",
"SXSXSXz l S U U I A A L Y ' _ u 9.bX X,.-XvX#XI.E.1XrX8X[.5.Z : ",
"SXSXSXSXz h l S L D V A Y W S 3 r.VXjXH.Z.1XwX%Xs.p.zX8X).;.m 1 ",
"SXSXSXSXSXV 6 > 6 6 6 j 9 9 % % w.aXVXkX8X$X8XwXXXC.~.[.h.R d = ",
"SXSXSX  . q ! e.S.k.0._ 8 $ 6 2 ;.w.j.D.~.L.(.'.].'.(.M.0.B s & ",
"SXSX  * { G.I.rXyX8X8X XF.( q % E $.) ) ) $.*.q.6.g.g.b.&.N t X ",
"SX  # +.`.XX8.=XxX8X#X:XrX[.f.S l ^ ~ T T T U ~ ) %.4.d.! s w . ",
"SX  H ~.#X8XI.D.XX$XI.#.lX0XF.0.z z U Y U U L L Y T $.1.B t = SX",
"SX+ a.9X#X9X8X7X@X$X@XS.E.7X_.3.S 2 j P U I L C A L W ' n - = SX",
"  q ,X9XH.*XAXwX%XwX9XwX8X@X).$.k l z j l z C V C D R V , - SXSX",
"  G gXhXk.y.lXwX$X.Xs.cXyX@Xx.E 4 $ SXS V 6 5 % ; , : > = SXSXSX",
"  R fXCX9XP..XwXwX.X@.;X0X`.1.F e . SXSXSXSXv 6 7 7 9 l SXSXSXSX",
". W E.aXdXqX#X+X@X8X{.`.`.n._ f e   SXSXSXSXSXSXSXSXSXSXSXSXSXSX",
"  S 2.1.0.t.v.n.N.B.(.M.M.f.K f =   SXSXSXSXSXSXSXSXSXSXSXSXSXSX",
"  8 ( ) ~ ~ ~ ` %.*.4.6.g.0.B s O SXSXSXSXSXSXSXSXSXSXSXSXSXSXSX",
"SX; P ~ T Y T Y U U ) :.4.} f r & SXSXSXSXSXSXSXSXSXSXSXSXSXSXSX",
"SX5 z P I U Y L A L L Q ;.! a - X SXSXSXSXSXSXSXSXSXSXSXSXSXSXSX",
"SXSXz h l P I I A C Y Y _ G = = SXSXSXSXSXSXSXSXSXSXSXSXSXSXSXSX",
"SXSXSXz z j h j j v v b l $ = SXSXSXSXSXSXSXSXSXSXSXSXSXSXSXSXSX",
"SXSXSXSXSXL l k @ + # + : q = SXSXSXSXSXSXSXSXSXSXSXSXSXSXSXSXSX"
};
