/* XPM */
static char *iagno[] = {
/* columns rows colors chars-per-pixel */
"32 32 107 2",
"   c #010101",
".  c #080706",
"X  c #0A0709",
"o  c #090807",
"O  c #0C0A0A",
"+  c #110E0D",
"@  c #190807",
"#  c #120D12",
"$  c #13110E",
"%  c #19180F",
"&  c #151113",
"*  c #191515",
"=  c #1C151A",
"-  c #1D1917",
";  c #1E1A19",
":  c #221319",
">  c #221D1B",
",  c #211721",
"<  c #241B23",
"1  c #2A1E2A",
"2  c #25211C",
"3  c #29241F",
"4  c #272121",
"5  c #2B2325",
"6  c #2E232A",
"7  c #2E2924",
"8  c #32252B",
"9  c #312B26",
"0  c #342C2B",
"q  c #382E2E",
"w  c #352635",
"e  c #372738",
"r  c #362933",
"t  c #392230",
"y  c #382738",
"u  c #392D33",
"i  c #382838",
"p  c #37302B",
"a  c #3A332D",
"s  c #3F392F",
"d  c #3D3333",
"f  c #3F3931",
"g  c #423D2E",
"h  c #4A302F",
"j  c #403733",
"k  c #42353A",
"l  c #433B34",
"z  c #453B3A",
"x  c #493E3B",
"c  c #6D3F2F",
"v  c #464035",
"b  c #464039",
"n  c #494337",
"m  c #4C433B",
"M  c #4F493A",
"N  c #52463D",
"B  c #524B3E",
"V  c #5D4139",
"C  c #5F4B3D",
"Z  c #67453A",
"A  c #6B4839",
"S  c #77432D",
"D  c #754F3C",
"F  c #7B4730",
"G  c #7E4830",
"H  c #7B4E3B",
"J  c #4D4240",
"K  c #524642",
"L  c #544B42",
"P  c #504B4A",
"I  c #5A4D45",
"U  c #565847",
"Y  c #5C5346",
"T  c #5B5048",
"R  c #5A5B4B",
"E  c #5B634D",
"W  c #5B684C",
"Q  c #625043",
"!  c #605649",
"~  c #635B4A",
"^  c #685D4C",
"/  c #745642",
"(  c #7B5440",
")  c #67614A",
"_  c #6D604A",
"`  c #616150",
"'  c #666E53",
"]  c #6C6350",
"[  c #627253",
"{  c #627C54",
"}  c #677859",
"|  c #618255",
" . c #648759",
".. c #658956",
"X. c #668D58",
"o. c #68855C",
"O. c #6A8D5C",
"+. c #6A905D",
"@. c #6D9561",
"#. c #864F35",
"$. c #855037",
"%. c #82523C",
"&. c #8D563A",
"*. c #86614A",
"=. c #9A6444",
"-. c #A36242",
";. c None",
/* pixels */
";.;.;.;.;.;.;.;.;.;.;.;.;.;.;.;.;.;.;.;.;.;.;.;.;.;.;.;.;.;.;.;.",
";.;.;.;.;.;.;.;.;.;.;.;.;.;.;.;.;.i i ;.;.d 4 ;.;.;.;.;.;.;.;.;.",
";.;.;.;.;.;.;.;.;.;.;.;.;.;.i 6 ;.* 0 ;.;.3 p ;.. ; w ;.;.;.;.;.",
";.;.;.;.;.;.;.;.;.;.e e ;.* L 2 ;.o b $ ;.O z p d z w ;.;.;.;.;.",
";.;.;.;.;.;.;.;.;.;.d > ;.;.l 2 ;.. K p 7 m z d O   = ;.;.;.;.;.",
";.;.;.e w ;.6 K . ;.2 n . ;.2 n a p K L 2 * > ; ;.;.;.;.;.;.;.;.",
";.;.0 L O ;.* B o ;.& N 4 v Y I l * > m . ;.- z O = - 6 ;.;.;.;.",
";.;.o M $ ;.;.s % 9 s N R p - v 4 ;.;.p O . > J d x u 8 ;.;.;.;.",
";.;.;.l B 2 a ) B g 7 v l ;.;.d s ;.* j J x 0 k ; . . ;.;.;.;.;.",
"< + l ~ _ Y 3 3 s   ;.% s     2 z d ~ ' b - ;.9 0 ;.;.X w ;.;.;.",
"k Y M n ^ 3 ;.. Y > ;.* L a K C I } @.+.R & ;.X 0 * 4 k e ;.;.;.",
";.4   ;.p 3 ;.. p n s M I =.=.$.D o.+...[ ; & q z k = * , ;.;.;.",
";.;.;.;.2 Y 3 n Y ~ n * > *.&.F c '  .| { z 0 5 > ; ;.;.;.;.;.;.",
";.w 2 v n ~ n > > l O ;.. M %.S A I ^ / D m . ;.* 8 . . = i ;.;.",
";.i K n 9 l 2 ;.;.s p   * l P ) [ ) -.&.G V & ;.* k 5 u 5 w ;.;.",
";.;.;.;.;.a g ;.. l L p N p E @.O.{ H #.S Z k 6 0 k > &   ;.;.;.",
";.;.;.;.;.2 n l I n T 3 . . U O. .X.Q H Z K k 6 O 8 1 ;.;.;.;.;.",
";.;.;.k s N Y p > $ m > ;.. K O.{ W J x ; ; d + ;.# 5 . # 5 y ;.",
";.;.;.K 9 o 3 9 ;.;.> 0 - > K L q & ; ; ;.  r ; # - d u 1 5 1 ;.",
";.;.;.;.;.;.- L $ X l I K 7 7 x . ;.- q X . q u d < < < ;.;.;.;.",
";.;.;.;.;.$ 2 m L l a n > ;.  9 @ ;.5 J z 0 r d O ;.* : ;.  = t ",
";.;.;.;.6 m l n n X ;.0 p ;.. 0 h 9 k x u . ;.6 . ;.& u 5 < 8 t ",
";.;.;.;.< o . 2 p ;.;.O d ; x f k *   4 7 ;.;.5 8 * r k 8 # . , ",
";.;.;.;.;.;.;.O n > 0 p K 0 * $ d # ;.o 5 X 5 u k < * 1 : ;.;.;.",
";.;.;.;.;.6 > l T l a - a ; ;.  u ; & ; k 8 6 = 6 . ;.. , ;.;.;.",
";.;.;.;.;.k l ; 9 l   ;.* d X X d d k 4 5 * ;.  r * ;.. 6 ;.;.;.",
";.;.;.;.;.w . ;.# z . + 7 K x u 9 u O ;.& u . ;.* < ;.1 e ;.;.;.",
";.;.;.;.;.;.;.  . a a l d d f ;.;.5 X ;.o 6 X ;.;.;.;.;.;.;.;.;.",
";.;.;.;.;.;.r j z a a .   > 0 ;.;.7 7 ;.;.6 w ;.;.;.;.;.;.;.;.;.",
";.;.;.;.;.;.i 6 $ . j # ;.. q # ;.1 w ;.;.;.;.;.;.;.;.;.;.;.;.;.",
";.;.;.;.;.;.;.;.;.  d * ;.# k ;.;.;.;.;.;.;.;.;.;.;.;.;.;.;.;.;.",
";.;.;.;.;.;.;.;.;.;.= r ;.;.;.;.;.;.;.;.;.;.;.;.;.;.;.;.;.;.;.;."
};
