/* XPM */
static char *lightsoff[] = {
/* columns rows colors chars-per-pixel */
"32 32 142 2",
"   c #0FEE1E1C2773",
".  c #12A01F882888",
"X  c #122A20E32AB0",
"o  c #19CB25452CBD",
"O  c #166B26C2316C",
"+  c #176B288733D2",
"@  c #188A29F73560",
"#  c #1A102CC7395B",
"$  c #1C5F30F03E0D",
"%  c #08DA30D54ACC",
"&  c #1EAF34D44302",
"*  c #0EBF377A51BD",
"=  c #06D239B25A81",
"-  c #211135804305",
";  c #25D239EB4781",
":  c #22CE392C4809",
">  c #28EB3EA84D48",
",  c #2CE03FE94C99",
"<  c #2F21448B52BC",
"1  c #341046F5530F",
"2  c #38804CEE59ED",
"3  c #0B9547066D52",
"4  c #0DAD483E6DF0",
"5  c #0D3149CE70FE",
"6  c #0D914F5D79A6",
"7  c #0F0452D67EB4",
"8  c #3F6953926026",
"9  c #420353A15E5B",
"0  c #4CE4543C59AB",
"q  c #4410597B67BC",
"w  c #48415B2666A4",
"e  c #4F625F966988",
"r  c #55E25CCA6133",
"t  c #4F33619D6CC7",
"y  c #5586655B6F2C",
"u  c #4C9A63DD72EA",
"i  c #58FB6A3074D3",
"p  c #5EC16FC27A40",
"a  c #5F3970547AE0",
"s  c #614C6D9575B8",
"d  c #62E870F47A2B",
"f  c #0F8B59BE8949",
"g  c #11955A4588BB",
"h  c #11305E88908F",
"j  c #122761BC94BB",
"k  c #12EE676B9E44",
"l  c #14476BAAA3D8",
"z  c #155C72F2AFBD",
"x  c #15017377B0C8",
"c  c #16D97C4EBE34",
"v  c #191E7CECBDAA",
"b  c #6A50779B8088",
"n  c #6B357AEA84DF",
"m  c #6F277E67883B",
"M  c #73B87C81824F",
"N  c #76B7803786F5",
"B  c #192B8757CEE8",
"V  c #1A4E8A94D345",
"C  c #1A98910FDE08",
"Z  c #21E2955ADF57",
"A  c #1D479C7DEF04",
"S  c #20369760E3D8",
"D  c #2CCF9CAEE4AB",
"F  c #3949A1D4E562",
"G  c #22B1A3BEF730",
"H  c #302CAB33FAB9",
"J  c #3E85B104FB4C",
"K  c #4A34A7ABE42A",
"L  c #4A39AA54E89B",
"P  c #575CAD5FE4F2",
"I  c #57EEB031E94E",
"U  c #51ECB8E8FBF1",
"Y  c #67EEB490E5EA",
"T  c #6931B796EA2C",
"R  c #749CBA05E6A0",
"E  c #6152BF2DFC45",
"W  c #74B7C71DFCAD",
"Q  c #8C4292EB9798",
"!  c #93CC9C65A258",
"~  c #9C87A20AA58D",
"^  c #9D13A4C8A9CA",
"/  c #979EAC76B9EA",
"(  c #9B5AAF8FBC9A",
")  c #A1A7A70AAA89",
"_  c #A729ACDDB07F",
"`  c #A9B8AF63B2CB",
"'  c #AD28B2A1B605",
"]  c #AFFBB4FCB85B",
"[  c #B37FB76CBA4C",
"{  c #B625B964BB8A",
"}  c #B984BCACBEBA",
"|  c #9A13B3C6C3CA",
" . c #9ADDB716C866",
".. c #9C0EBA65CD58",
"X. c #9D91BEAFD3EA",
"o. c #AE5FBF71CA79",
"O. c #BBCBBF12C101",
"+. c #9EC7C29DD911",
"@. c #AF4BC244CE4F",
"#. c #BED0C20BC420",
"$. c #B357C190CAE5",
"%. c #BC49C66ECD32",
"&. c #A781C43BD6C0",
"*. c #A357C621DC26",
"=. c #AA2BC6ABD963",
"-. c #ABE8CAA0DE3C",
";. c #B0B6C712D4CE",
":. c #B32DCD21DD7E",
">. c #84C3C0F8E783",
",. c #8747C46FEB9E",
"<. c #9187C683E85C",
"1. c #949ACA23EC62",
"2. c #8397CD4FFD09",
"3. c #96B9D53EFD71",
"4. c #AECBCE30E24D",
"5. c #A6F4D257EE22",
"6. c #B592D255E468",
"7. c #BBE8D5DAE696",
"8. c #B331D703EDFC",
"9. c #A5CDDB59FDCC",
"0. c #BA6FE407FF04",
"q. c #C1D5C456C623",
"w. c #C079CFFFDA30",
"e. c #CEDFD085D14E",
"r. c #C229D187DB93",
"t. c #CA42D536DC8C",
"y. c #C271D75AE463",
"u. c #C3C5DA04E7F3",
"i. c #C667DB48E86D",
"p. c #CAE0DD93E95D",
"a. c #D072DE4CE727",
"s. c #DC0ADF45E178",
"d. c #D4D6E060E7EB",
"f. c #D1A0E126EAAD",
"g. c #C587E1A6F3DA",
"h. c #C8CBE9A5FF01",
"j. c #E3B8E54BE624",
"k. c #E359E6DEE942",
"l. c #E270E8FAED54",
"z. c #E902E95DE9F5",
"x. c #E8B6EE1AF1AD",
"c. c #FF8FFF86FF81",
/* pixels */
"c.c.c.c.c.c.c.c.c.c.c.c.c.c.c.c.c.c.c.c.c.c.c.c.c.c.c.c.c.c.c.c.",
"c.c.c.c.c.c.c.c.c.c.c.c.c.c.c.c.c.c.c.c.c.c.c.c.x.c.c.c.c.c.c.c.",
"c.c.j.[ [ [ [ [ [ [ [ ] [ [ { z.x.:.%.r.w.r.r.r.r.r.r.r.r.l.c.c.",
"c.c.[ s b b b b b b b b b b p q.a.4.g.g.g.g.g.g.p.g.g.g.4.r.c.c.",
"c.c.] i n b b b b b b n b n p #.d.5.0.0.0.0.0.0.0.0.0.0.5.t.c.c.",
"c.c.' e i i i i i i i i i i e #.p.>.3.3.3.3.3.3.3.3.3.3.,.6.c.c.",
"c.c.` q w q q q w w w w q q 9 O.u.Y W W W W W W W W W W T :.c.c.",
"c.c._ 1 2 2 2 2 2 2 2 2 2 2 1 } 7.K U U U U U U U U U U L -.c.c.",
"c.c.) ; < > > > > , > > , > ; { 6.D H H H H H H H H H H D *.c.c.",
"c.c.^ & & & & & & & & & & & & [ 6.C A A A A A A A A A A C +.c.c.",
"c.c.^ # & $ $ & & & & & & $ # [ :.v B B B B B B B B B V c X.c.c.",
"c.c.~ # # # # # # # # # # # # [ ;.l x z z x z x z z x x l ..c.c.",
"c.c.~ o @ @ @ @ + + + + + @ O [ ;.g h h h h h h h h h h f  .c.c.",
"c.c.~ X O O O o O O O O O O o [ @.4 5 5 5 5 5 5 5 5 5 5 3 ( c.c.",
"c.c.) o     X .   . . X . . o { $.* % % % % % % % % % % % ( c.c.",
"c.c.s.! Q Q Q Q Q Q Q Q Q Q ! z.k.^ ! ! ! ! ! ! ! ! ! ! ^ s.c.c.",
"c.c.t.&.7.7.7.u.7.7.7.7.7.7.&.a.e.M N M M N N N N N M N M q.c.c.",
"c.c.i.8.h.h.h.h.h.h.h.h.h.h.6.f.#.d m m m m m m m m m m d ] c.c.",
"c.c.r.1.9.9.9.9.9.9.9.9.9.9.<.p.#.y a a a p a a p p p a y ' c.c.",
"c.c.:.W 2.2.2.2.2.2.2.2.2.2.R u.O.w t t t t t t t t t t w ' c.c.",
"c.c.-.I W U E U W U W U E E P y.} 2 8 8 8 8 8 8 8 8 8 8 2 _ c.c.",
"c.c.-.F J J J J H J H U H U F 7.} , < < < < < < < < < < > ) c.c.",
"c.c.+.S G G G G G G G G G G Z 6.{ - ; : : - : & - : : : - ) c.c.",
"c.c.+.B C C C C C C C C C C B :.{ # & & & & & & & & & & $ ^ c.c.",
"c.c...x c c c c c c c c c c z :.] # # & # & & # # $ $ # # ^ c.c.",
"c.c. .j k k k k k k k k k k j =.[ @ + # @ @ + + @ # # @ + ^ c.c.",
"c.c.| 6 7 7 7 7 7 7 7 7 7 7 6 @.[ O + O + O X O + + O + o ~ c.c.",
"c.c./ = = = = = = = = = = = = o.]     X   X     X   X     ~ c.c.",
"c.c.%.q q q q q 8 q q 8 q q u t.e.r 0 0 0 0 0 0 0 0 0 0 r #.c.c.",
"c.c.c.c.c.c.c.c.c.c.c.c.c.c.c.c.c.c.c.c.c.c.c.c.c.c.c.c.c.c.c.c.",
"c.c.c.c.c.c.c.c.c.c.c.c.c.c.c.c.c.c.c.c.c.c.c.c.c.c.c.c.c.c.c.c.",
"c.c.c.c.c.c.c.c.c.c.c.c.c.c.c.c.c.c.c.c.c.c.c.c.c.c.c.c.c.c.c.c."
};
