/* XPM */
static char *matetris[] = {
/* columns rows colors chars-per-pixel */
"32 32 134 2",
"   c #000000",
".  c #050708",
"X  c #0D0706",
"o  c #0B0B0C",
"O  c #0B0D10",
"+  c #0E1012",
"@  c #120B09",
"#  c #151514",
"$  c #19191A",
"%  c #392D23",
"&  c #36322C",
"*  c #303233",
"=  c #383B3E",
"-  c #343C44",
";  c #3E4C5D",
":  c #4D3426",
">  c #6B4033",
",  c #46484A",
"<  c #4D4B45",
"1  c #474F57",
"2  c #485057",
"3  c #4B5359",
"4  c #5E5548",
"5  c #51565B",
"6  c #55595E",
"7  c #595959",
"8  c #4B5C6F",
"9  c #4C5E70",
"0  c #576673",
"q  c #5A6976",
"w  c #645442",
"e  c #60534C",
"r  c #635955",
"t  c #606E78",
"y  c #6E767B",
"u  c #5A6F86",
"i  c #747B82",
"p  c #6A839D",
"a  c #7C8185",
"s  c #748BA1",
"d  c #758FAC",
"f  c #7590AE",
"g  c #7994AF",
"h  c #7C96B1",
"j  c #7F99B2",
"k  c #814F3E",
"l  c #82523E",
"z  c #875D42",
"x  c #895E44",
"c  c #895D49",
"v  c #954E45",
"b  c #866444",
"n  c #896244",
"m  c #8E6D49",
"M  c #967D5D",
"N  c #857060",
"B  c #887772",
"V  c #8A7873",
"C  c #B05E52",
"Z  c #B16253",
"A  c #B77258",
"S  c #B87459",
"D  c #BB7A5B",
"F  c #BB7563",
"G  c #C46D5C",
"H  c #C6735E",
"J  c #C8795F",
"K  c #CD8364",
"L  c #CE8965",
"P  c #D08565",
"I  c #D08B66",
"U  c #D38B74",
"Y  c #D29067",
"T  c #D6966B",
"R  c #D69C6C",
"E  c #DA976C",
"W  c #D99B6D",
"Q  c #DB9C7B",
"!  c #D7A16D",
"~  c #DAA36E",
"^  c #DCA86F",
"/  c #DDA670",
"(  c #DCA27C",
")  c #DDAC71",
"_  c #DEB272",
"`  c #E0AE73",
"'  c #E1B473",
"]  c #E2B973",
"[  c #8E8680",
"{  c #929699",
"}  c #9F9996",
"|  c #999C9E",
" . c #849CB2",
".. c #929EAA",
"X. c #9B9EA0",
"o. c #87A0BB",
"O. c #8BA2B4",
"+. c #8BA3BB",
"@. c #92A6B6",
"#. c #90A7B9",
"$. c #92A8B7",
"%. c #94AABB",
"&. c #98ADBA",
"*. c #9BB0BB",
"=. c #A09A97",
"-. c #A29C98",
";. c #BB9C8C",
":. c #94ABC2",
">. c #98AEC1",
",. c #9EB3C2",
"<. c #9DB3C9",
"1. c #A0B4C3",
"2. c #B7BFC7",
"3. c #BBBFC1",
"4. c #B8C0C8",
"5. c #B5C4D1",
"6. c #B8C7D1",
"7. c #DFA189",
"8. c #C4B9AD",
"9. c #D7BFB2",
"0. c #DAC7AD",
"q. c #D5C2B2",
"w. c #DAC6B4",
"e. c #DCCCB6",
"r. c #DDC8BA",
"t. c #ECCFA6",
"y. c #EED2A7",
"u. c #EFD6A8",
"i. c #E0D4BE",
"p. c #C0C6CD",
"a. c #C3CACF",
"s. c #C4CCD0",
"d. c #C5D1DA",
"f. c None",
/* pixels */
"f.f.f.f.f.f.f.f.f.f.f.f.f.f.f.f.f.f.f.f.f.f.f.f.f.f.f.f.f.f.f.f.",
"f.f.f.f.f.  . $ $ $ $ $ $ o # $ $ $ $ $ + o $ $ $ $ $ $       f.",
"f.f.f.f.f.  < i.e.e.e.e.0.4 8.e.e.w.w.w.N [ r.q.q.q.9.;.@     f.",
"f.f.f.f.f.  7 u.] ] ' _ _ w q.) ~ ~ W ~ n } ( T Y I P D @       ",
"f.f.f.f.f.  7 y._ _ _ ) ) w q.~ R R R T n =.( L L L L S @       ",
"f.f.f.f.f.  7 y._ _ ) ) ^ w q.~ R R R T x =.Q L L L K S @       ",
"f.f.f.f.f.  7 y.^ _ ) ) ^ w q.R R R T T x } Q L K K K A @       ",
"f.f.f.f.f.  7 y.' ` ) / ^ w w.~ W R T E z } Q P K K P S @       ",
"f.f.f.f.f.  & M m m m m n % N n n n x x : e n l l k k > X       ",
"f.f.f.f.f.                                r -.=.} =.=.B o       ",
"f.f.f.f.f.f.                              -.7.U U U U F @       ",
"f.f.f.f.f.f.                              =.U J H H H Z @       ",
"f.f.f.f.f.f.f.f.f.f.f.f.f.f.f.f.f.f.f.f.  =.U J H H G Z @       ",
"f.f.f.f.f.f.f.f.f.  # $ $ $ $ $ O   f.f.  =.U H H H G C @       ",
"f.f.f.f.f.f.f.f.f.$ 3.a.a.a.a.a.y     f.  =.U H G G G C @       ",
"f.f.f.f.f.f.f.f.f.$ a.&.&.&.&.&.t         B F Z Z C C v X       ",
"f.f.f.f.f.f.f.f.f.$ a.&.&.$.%.%.t         o @ @ @ @ @ X         ",
"f.f.f.f.f.f.f.f.f.$ a.%.$.%.O.@.q       f.                      ",
"f.f.f.f.f.f.f.f.f.$ a.@.O.O.O.@.q       f.                    f.",
"f.f.f.f.f.f.f.f.f.$ a.%.@.%.+.+.q       f.f.f.f.              f.",
"f.                + y q 0 0 0 0 -                 f.f.f.f.f.f.f.",
"f.  * | X.X.X.X.{ = [ | | | | | 5 6 X.| | | | i o     f.f.f.f.f.",
"f.  7 d.,.,.,.,.>.3 4.>.%.:.:.:.q | <.o.+.o.o.d O       f.f.f.f.",
"f.  7 6.O.O.O.O.o.2 4. . . .h j 9 | o.f f f f p O       f.f.f.f.",
"f.  7 4.O.O. .O. .1 4. .h h h h 8 | :.d d f f p O       f.f.f.f.",
"f.  7 5.O.O. .j  .1 4.h h g f h 8 ..j d f d f p O       f.f.f.f.",
"f.  7 5. . . . . .1 4.h g g g g 8 |  .f f f f p O       f.f.f.f.",
"f.  , $.s s s s p - ..p p p p p 1 i d p p p p u o       f.f.f.f.",
"f.  . + o O O O O . o O O O O O . O O O O O O o         f.f.f.f.",
"f.f.                                                    f.f.f.f.",
"f.f.                                                  f.f.f.f.f.",
"f.f.f.                                                f.f.f.f.f."
};
