/* XPM */
static char *mate-mahjongg[] = {
/* columns rows colors chars-per-pixel */
"32 32 167 2",
"   c #000000",
".  c #020D02",
"X  c #0A0A07",
"o  c #0A0A08",
"O  c #051504",
"+  c #071906",
"@  c #0B1407",
"#  c #0D1408",
"$  c #091B07",
"%  c #0A1E08",
"&  c #12110B",
"*  c #161615",
"=  c #1E1D14",
"-  c #0F250B",
";  c #12260C",
":  c #152B0E",
">  c #1F2612",
",  c #1B3113",
"<  c #201F15",
"1  c #370B0A",
"2  c #3E0F0D",
"3  c #212016",
"4  c #21211A",
"5  c #2F2D1F",
"6  c #253A18",
"7  c #293D1A",
"8  c #333124",
"9  c #383626",
"0  c #383629",
"q  c #383B21",
"w  c #3E3C29",
"e  c #3D3D3C",
"r  c #2E411D",
"t  c #30431E",
"y  c #451513",
"u  c #4A1512",
"i  c #552922",
"p  c #592A20",
"a  c #5E3628",
"s  c #643125",
"d  c #62332A",
"f  c #6B3928",
"g  c #6C3A35",
"h  c #44432B",
"j  c #4A4731",
"k  c #4D4A33",
"l  c #405027",
"z  c #545238",
"x  c #5D593E",
"c  c #546334",
"v  c #5A6936",
"b  c #5E6C3A",
"n  c #6F432F",
"m  c #6E4233",
"M  c #744535",
"N  c #734A36",
"B  c #764F3B",
"V  c #7A4C37",
"C  c #7C5136",
"Z  c #7C533B",
"A  c #474747",
"S  c #7F5646",
"D  c #7C5549",
"F  c #7F5948",
"G  c #676344",
"H  c #696546",
"J  c #6A7541",
"K  c #726E4B",
"L  c #75714E",
"P  c #737D44",
"I  c #78744D",
"U  c #777454",
"Y  c #7A7651",
"T  c #778048",
"R  c #83533E",
"E  c #825749",
"W  c #845C49",
"Q  c #885F41",
"!  c #84654D",
"~  c #8C6B4D",
"^  c #807C57",
"/  c #8D705E",
"(  c #906C59",
")  c #967450",
"_  c #947359",
"`  c #967B54",
"'  c #9D7C64",
"]  c #858058",
"[  c #868C54",
"{  c #8B865B",
"}  c #888F50",
"|  c #8B9154",
" . c #9D845C",
".. c #9B8A57",
"X. c #95995D",
"o. c #928D61",
"O. c #9C8562",
"+. c #979164",
"@. c #9A9660",
"#. c #A58C64",
"$. c #A78F6A",
"%. c #AA896C",
"&. c #A39F61",
"*. c #A49E6C",
"=. c #A89365",
"-. c #AE956B",
";. c #B19C6A",
":. c #A6A668",
">. c #A8A767",
",. c #ACAB6C",
"<. c #A8A370",
"1. c #AFB078",
"2. c #B1A66E",
"3. c #B3AE74",
"4. c #B3AD79",
"5. c #B9AD75",
"6. c #B5B172",
"7. c #B7B47F",
"8. c #B8B475",
"9. c #BCB37B",
"0. c #BEBA7F",
"q. c #C1B67C",
"w. c #C1BB7E",
"e. c #828282",
"r. c #9C9A89",
"t. c #A3A086",
"y. c #AAA681",
"u. c #ABA98C",
"i. c #B2AE88",
"p. c #BAA089",
"a. c #B7BB8D",
"s. c #BBBA85",
"d. c #B9BB8D",
"f. c #BDBF93",
"g. c #A6A6A6",
"h. c #B9B6A3",
"j. c #C2B384",
"k. c #C4BD83",
"l. c #C4BB89",
"z. c #C3B294",
"x. c #C7C085",
"c. c #C9C185",
"v. c #C9C38B",
"b. c #C4C69F",
"n. c #CBC694",
"m. c #CCC698",
"M. c #CDC895",
"N. c #D1CC9E",
"B. c #CED0B3",
"V. c #D3CFA1",
"C. c #D4CEAD",
"Z. c #D4D2AC",
"A. c #D8D4AB",
"S. c #D3D5B9",
"D. c #DDDABA",
"F. c #DFDDC0",
"G. c #DFDFCA",
"H. c #DDDDDD",
"J. c #E2E0C3",
"K. c #E3E2CB",
"L. c #E2E3D0",
"P. c #EBEAD7",
"I. c #EAE9D8",
"U. c #E7E7E7",
"Y. c #F4F3EB",
"T. c gray100",
"R. c None",
/* pixels */
"R.R.R.R.R.R.R.R.R.R.R.R.R.R.R.R.R.R.R.R.R.R.R.R.R.R.R.R.R.R.R.R.",
"R.R.R.R.R.R.R.R.R.R.R.R.R.R.R.R.R.R.R.R.R.R.R.R.R.R.R.R.R.R.R.R.",
"R.R.R.R.R.R.R.R.R.R.R.R.R.R.R.R.R.R.R.R.R.R.R.R.R.R.R.R.R.R.R.R.",
"R.R.R.R.R.R.R.R.R.R.R.R.R.R.R.R.R.R.R.R.R.R.R.R.R.R.R.R.R.R.R.R.",
"R.R.R.R.R.R.R.R.R.R.R.R.R.                        R.R.R.R.R.R.R.",
"R.R.R.R.R.R.R.R.R.R.R.R.      o o o                       R.R.R.",
"R.R.R.R.R.R.R.R.R.R.R.      j o.o.+.H z h a 7 4             R.R.",
"R.R.R.R.R.R.R.R.R.R.      w 4.k.c.q.) Z ~ 5.s.@.Y h o         R.",
"R.R.R.R.R.R.R.R.R.      q y.M.j. .` f y E ;.w.0.[ t #         R.",
"R.R.R.R.R.R.R.R.      0 i.V.l.~ m V y d p.l.8.>.l $ O           ",
"R.R.R.R.R.R.R.      8 u.A.v.O.S z.B d R D l.>.J ; + .           ",
"R.R.R.R.R.R.      4 u.D.n.x.` _ D i ' M ( 7.| r $ O .           ",
"R.R.R.R.R.      e h.Z.l.=.` R s 1 ! #.) 9.,.v - O O             ",
"R.R.R.R.      * r.D.;.C p g %.N 2 E j.k.6.| r + O O             ",
"R.R.R.      = r.F.M.;.R $.W Z d _ m ( 9.6.b ; + O               ",
"R.R.R.    3 t.I.V.k.9.q.k.B u / m.#.n ..X.r % O O               ",
"R.R.      U P.Y.J.Z.M.k.k. .~ l.k.k.2.:.c $ + O                 ",
"R.        Y A.K.L.G.K.F.A.M.v.k.w.k.8.| 6 % O .               R.",
"R.        Y c.c.0.s.f.b.B.S.B.Z.N.k.,.c - + O .               R.",
"R.        L c.c.c.k.k.w.s.s.s.d.a.1.[ 6 % O O               R.R.",
"R.        k 4.k.c.c.c.c.c.c.k.w.0.6.P ; + O                 R.R.",
"R.        X w ] <.4.k.c.c.c.c.c.w.6.P : + .               R.R.R.",
"R.            X & 8 x L o.4.k.c.k.6.T , O                 R.R.R.",
"R.R.                    o 5 h H { @.T 6 @                 R.R.R.",
"R.R.                            X > q 3               R.R.R.R.R.",
"R.R.R.                                                R.R.R.R.R.",
"R.R.R.R.                                              R.R.R.R.R.",
"R.R.R.R.R.                                          R.R.R.R.R.R.",
"R.R.R.R.R.R.                                      R.R.R.R.R.R.R.",
"R.R.R.R.R.R.R.R.R.R.R.      * o                 R.R.R.R.R.R.R.R.",
"R.R.R.R.R.R.R.R.R.R.R.R.R.A H.e.              R.R.R.R.R.R.R.R.R.",
"R.R.R.R.R.R.R.R.R.R.R.R.R.g.T.U.= R.R.R.R.R.R.R.R.R.R.R.R.R.R.R."
};
