/* XPM */
static char *mate-sudoku[] = {
/* columns rows colors chars-per-pixel */
"32 32 232 2",
"   c black",
".  c #0B1505",
"X  c #2E2B19",
"o  c #282A22",
"O  c #7F6633",
"+  c #4D5257",
"@  c #565A52",
"#  c #5B6166",
"$  c #63686E",
"%  c #6D6F6A",
"&  c #71746E",
"*  c #7A786C",
"=  c #777770",
"-  c #72797F",
";  c #7A7F79",
":  c #557EB1",
">  c #667D9B",
",  c #747B82",
"<  c #7C807B",
"1  c #7C937D",
"2  c #7B838A",
"3  c #738597",
"4  c #6784A8",
"5  c #688CB9",
"6  c #6D90BC",
"7  c #758DAA",
"8  c #7592B6",
"9  c #7493BB",
"0  c #7996BB",
"q  c #7C9ABF",
"w  c #7596C0",
"e  c #7798C1",
"r  c #7C9AC1",
"t  c #A32C04",
"y  c #BF231C",
"u  c #8F5100",
"i  c #8D5C04",
"p  c #95470B",
"a  c #945300",
"s  c #905E00",
"d  c #8E6400",
"f  c #97660B",
"g  c #826B2D",
"h  c #8B7434",
"j  c #8E733B",
"k  c #AE4E07",
"l  c #AC5A0A",
"z  c #A16C16",
"x  c #A5741D",
"c  c #A37D69",
"v  c #E22C21",
"b  c #FA4A4D",
"n  c #E1724D",
"m  c #9F8121",
"M  c #97813B",
"N  c #B18F0B",
"B  c #B6940B",
"V  c #BB9A06",
"C  c #A98A35",
"Z  c #AE8E3F",
"A  c #9C8652",
"S  c #82837E",
"D  c #918668",
"F  c #948D75",
"G  c #A0894D",
"H  c #A48759",
"J  c #A28C51",
"K  c #A08C59",
"L  c #AD9241",
"P  c #A79155",
"I  c #B5955F",
"U  c #B49A57",
"Y  c #B99F60",
"T  c #B9A05F",
"R  c #BCA160",
"E  c #B0A07D",
"W  c #C1A101",
"Q  c #CDB41B",
"!  c #D4B700",
"~  c #D5B900",
"^  c #D9BE00",
"/  c #D19B68",
"(  c #C1AC5E",
")  c #C1AA7A",
"_  c #C1B562",
"`  c #D0BB66",
"'  c #D2B969",
"]  c #D5BF70",
"[  c #DCC200",
"{  c #E7CF05",
"}  c #E8D007",
"|  c #EBD30C",
" . c #EDD611",
".. c #EEDC3A",
"X. c #F1DD31",
"o. c #F2DF3B",
"O. c #D6C071",
"+. c #DCD376",
"@. c #F2E043",
"#. c #F5E76E",
"$. c #F5E874",
"%. c #F6E97B",
"&. c #858682",
"*. c #878A84",
"=. c #898B86",
"-. c #8C8E8A",
";. c #838C95",
":. c #8E918C",
">. c #8B949D",
",. c #939286",
"<. c #91928D",
"1. c #9B9380",
"2. c #9D9788",
"3. c #949591",
"4. c #979995",
"5. c #999A95",
"6. c #9D9E9A",
"7. c #838FA5",
"8. c #8794A4",
"9. c #8997A0",
"0. c #829BBB",
"q. c #889DB4",
"w. c #919AA4",
"e. c #9EA09C",
"r. c #87A0BF",
"t. c #88A0BD",
"y. c #9AA4AE",
"u. c #93A6BE",
"i. c #9CA6B1",
"p. c #9CABBC",
"a. c #A49E8B",
"s. c #A89F86",
"d. c #BC898C",
"f. c #A2A39F",
"g. c #B0A489",
"h. c #B4A98D",
"j. c #BCB196",
"k. c #A4A5A2",
"l. c #A4A7A8",
"z. c #A7A9A5",
"x. c #A4A9AC",
"c. c #A8A9A6",
"v. c #ABACA9",
"b. c #A2ABB5",
"n. c #A3AEBB",
"m. c #AAAEB0",
"M. c #ACB0B0",
"N. c #B3B5B2",
"B. c #B7B8B5",
"V. c #B9BAB6",
"C. c #BCBDBA",
"Z. c #819EC3",
"A. c #86A2C6",
"S. c #86A4CA",
"D. c #89A4C7",
"F. c #89A5C9",
"G. c #8EA9CB",
"H. c #93A9C6",
"J. c #93ADCC",
"K. c #9FAFC1",
"L. c #97B0CF",
"P. c #99B1CF",
"I. c #96B0D1",
"U. c #9BB4D2",
"Y. c #A3B1C3",
"T. c #A3B6CE",
"R. c #AAB5C2",
"E. c #AEB9C5",
"W. c #AEBBC8",
"Q. c #A1B7D2",
"!. c #A5BBD5",
"~. c #A6BDD9",
"^. c #AABDD4",
"/. c #A9BED8",
"(. c #B0BBC6",
"). c #B3BEC9",
"_. c #B0BED0",
"`. c #AFC0D5",
"'. c #ADC1DA",
"]. c #B6C1CD",
"[. c #BDC2C6",
"{. c #B9C3CE",
"}. c #B2C2D5",
"|. c #B3C5DB",
" X c #B7C9DE",
".X c #B9C5D4",
"XX c #BDC9D6",
"oX c #BAC9DC",
"OX c #BBCCE0",
"+X c #C6B9A9",
"@X c #CBBCA0",
"#X c #E69C9B",
"$X c #F1A088",
"%X c #D7C880",
"&X c #DEDA91",
"*X c #C6C0A0",
"=X c #C1C1BE",
"-X c #EBDF8C",
";X c #EFE084",
":X c #EFE28E",
">X c #F0E28A",
",X c #C3C4C2",
"<X c #C7C7C8",
"1X c #C7C8CA",
"2X c #C8C9C7",
"3X c #CBCCCC",
"4X c #C1CEDC",
"5X c #CBCED1",
"6X c #C5D1DF",
"7X c #CDD0D4",
"8X c #C9D1DB",
"9X c #D0D0CD",
"0X c #DFD5C5",
"qX c #D3D4D4",
"wX c #D5D7D9",
"eX c #D6D8DB",
"rX c #D8D8D7",
"tX c #DCDCDC",
"yX c #C5D3E2",
"uX c #CBD6E2",
"iX c #CBD8E6",
"pX c #CEDBE9",
"aX c #D4DAE0",
"sX c #D1DDEA",
"dX c #DBDFE4",
"fX c #E4E4E4",
"gX c #E6EAEE",
"hX c #EBEBEA",
"jX c #F3F3F3",
"kX c #FAFDF7",
"lX c #FEFEFE",
"zX c None",
/* pixels */
"zXzXzXzXzXzXzXzXzXzXzXzXzXzXzXzXzXzXzXzXzXzXzXzXzXzXzXzXzXzXzXzX",
"zXzXzXzXzXzXzXzXzXzXzXzXzXzXzXzXzXzXzXzXzXzXzXzXzXzXzXzXzXzXzXzX",
"zXzXzXzXzXzXzXzXzXzXzXzXzXzXzXzXzXzXzXzXzXzXzXzXzXzXzXzXzXzXzXzX",
"zXzXzXzXzXzXzXzXzXzXzXzXzXzXzXzXzXzXzXzXzXzXzXzXzXzXzXzXzXzXzXzX",
"zXzXzXzXzXzXzXzXzXzXzXzXzXzXzXzXzXzXzXzXzXzXzXzXzXzXzXzXzXzXzXzX",
"zXzXzXzXzX&.:.6.e.f.f.f.z.f.z.z.z.f.f.e.6.e.e.f.6.<.&.zXzXzXzXzX",
"zXzXzXzXzX=.N.tXfXfXfXhXhXhXhXhXhXhXhXhXhXhXhXfXfXV.-.zXzXzXzXzX",
"zXzXzXzXzX4.9X!.A.D.S.A.D.D.D.S.F.D.F.F.F.D.A.A.!.wX5.zXzXzXzXzX",
"zXzXzXzXX f.eXr U.'.'.|.~.I.|.|.OX'.U./.OXOXOX'.A.eXc.  zXzXzXzX",
"zXzXzXzX&.C.uXA.OXW.;.oX'.S.OXn.i.pXJ.~.pXpXiXoXF.yX=XS zXzXzXzX",
"zXzXzXzX:.9XoXF.yXn.;.].'.G.pXn.w.iXJ.U.pXpXiXiXJ.|.9X:.zXzXzXzX",
"i z x f 2.tX'.G.pXW.>.].!.P..X$ , ].I.U.sXpXpXiXU.Q.tXc.. zXzXzX",
"l n $X/ I @XH.S.I.G.D.L.e 9 H.0.A.J.9 w U.J.L.L.J.H.fXB.& zXzXzX",
"k v b #X+X) A ,.H.I.I.I.w w J.q 0.J.e 6 J.J.J.J.Q.Z.dX,X:.zXzXzX",
"a t y d.@X;X:X' T j.5XpXG.U.pXy.- {.Q.G.uXuXuXuXyXr 8XtX6.zXzXzX",
"s a p c (  .@.%.:X' T h.q.!.iXE., b.!.S.4XyXyXuXOXS._.fXv.* zXzX",
"zXu j H Z W [ | @.$.:X] P s.N.y.>.W.'.A.yX6X6XyXoXU.H.fX,X*.zXzX",
"zXzX,.2X0XD m V ^ | o.$.:X] Y F 7 0 5 : 6 9 9 9 9 I.q tX9X<.zXzX",
"zX@ f.rXgXq n.E C V ! } X.#.:X` P m.P.9 W.Y.9.p.`.`.q 7XwXc.o zX",
"zX& M.fXuXA.`.yX[.g.C B ! { ..-X+.U M.q |.2 >., ].}.D.].tXN.% zX",
"zXS B.hX.XA.|.yXyXXX[.s.j N Q +.&XR A 3 ].2 ;.+ b..XH.Y.tXC.-.zX",
"zX3.2XhXT.F.6X4XXX.X}.Y.> 1.G L L M g O c.i.;.# i.4XI.H.9X3X4.zX",
"zX4.rXfXH.J.4X4X4X.X].p.> R.b.c.x.f.a.* 5.;.- , (.XXQ.q.3XqXf.zX",
"< f.tXeX0.J.^.!.^.^.!.Q.H.^.^.^.^.`.'.J.'.}.|.oX X.X!.0 [.9Xv.; ",
"&.N.tXeX0.0 0 0 0 0 0 0 9 8 9 9 8 8 8 8 0 8 8 8 8 8 8 8 ,X9X+X*.",
"=.C.tXtXeXeXeXwXwXqXqXqX7X5X5X5X5X5X5X5X5X3X3X3X3X5X3X5X5XrX,X;.",
":.z.C.C.=X,X,X=X,X,X,X,X,X,X,X,X,X,X,X,X,X,X,X,X,X,X,X,X,X,XB.3.",
"-.4.f.c.c.c.c.v.c.c.z.z.z.z.k.k.f.k.f.k.k.k.k.c.z.z.c.c.v.l.6.6.",
"zXzXlXlXlXkXjXfXfXtXeXwX3X3X<X3X<X<X1X3X9XwXeXtXfXhXjXlXlXlXzXzX",
"zXzXzXzXzXlXkXjXhXhXhXfXfXfXfXfXfXfXfXfXfXhXhXhXjXjXlXlXzXzXzXzX",
"zXzXzXzXzXzXzXzXzXzXzXzXzXzXlXlXlXlXlXzXzXzXzXzXzXzXzXzXzXzXzXzX",
"zXzXzXzXzXzXzXzXzXzXzXzXzXzXzXzXzXzXzXzXzXzXzXzXzXzXzXzXzXzXzXzX"
};
